<?xml version="1.0" encoding="UTF-8" standalone="no"?>
<svg
   version="1.1"
   viewBox="0 0 452.75005 250.01299"
   fill="none"
   stroke="none"
   stroke-linecap="square"
   stroke-miterlimit="10"
   id="svg25"
   sodipodi:docname="MCP layers.svg"
   width="452.75006"
   height="250.013"
   inkscape:version="1.3.2 (091e20e, 2023-11-25)"
   xmlns:inkscape="http://www.inkscape.org/namespaces/inkscape"
   xmlns:sodipodi="http://sodipodi.sourceforge.net/DTD/sodipodi-0.dtd"
   xmlns="http://www.w3.org/2000/svg"
   xmlns:svg="http://www.w3.org/2000/svg">
  <defs
     id="defs25" />
  <sodipodi:namedview
     id="namedview25"
     pagecolor="#ffffff"
     bordercolor="#000000"
     borderopacity="0.25"
     inkscape:showpageshadow="2"
     inkscape:pageopacity="0.0"
     inkscape:pagecheckerboard="0"
     inkscape:deskcolor="#d1d1d1"
     inkscape:zoom="0.98761573"
     inkscape:cx="234.90918"
     inkscape:cy="13.163014"
     inkscape:window-width="1600"
     inkscape:window-height="841"
     inkscape:window-x="0"
     inkscape:window-y="38"
     inkscape:window-maximized="0"
     inkscape:current-layer="svg25" />
  <clipPath
     id="p.0">
    <path
       d="M 0,0 H 1024 V 768 H 0 Z"
       clip-rule="nonzero"
       id="path1" />
  </clipPath>
  <g
     clip-path="url(#p.0)"
     id="g25"
     transform="translate(-303.59521,-170.51571)">
    <path
       fill="#000000"
       fill-opacity="0"
       d="M 0,0 H 1024 V 768 H 0 Z"
       fill-rule="evenodd"
       id="path2" />
    <path
       fill="#999999"
       d="m 320.1601,352.9265 h 422.3307 v 50.39371 H 320.1601 Z"
       fill-rule="evenodd"
       id="path4" />
    <path
       stroke="#999999"
       stroke-width="1"
       stroke-linejoin="round"
       stroke-linecap="butt"
       d="m 320.1601,352.9265 h 422.3307 v 50.39371 H 320.1601 Z"
       fill-rule="evenodd"
       id="path5" />
    <path
       fill="#ffffff"
       d="m 490.12653,377.04337 q -0.29688,0 -0.51563,-0.20313 -0.20312,-0.21875 -0.20312,-0.53125 v -13.84375 h 1.45312 v 13.84375 q 0,0.3125 -0.20312,0.53125 -0.20313,0.20313 -0.53125,0.20313 z m -5.14063,-13.25 q -0.29687,0 -0.48437,-0.1875 -0.1875,-0.1875 -0.1875,-0.46875 0,-0.29688 0.1875,-0.48438 0.1875,-0.1875 0.48437,-0.1875 h 10.3125 q 0.29688,0 0.48438,0.1875 0.1875,0.1875 0.1875,0.48438 0,0.28125 -0.1875,0.46875 -0.1875,0.1875 -0.48438,0.1875 z m 10.93467,6.96875 q 0.0469,-1.15625 0.59375,-2.0625 0.5625,-0.92188 1.4375,-1.4375 0.89062,-0.53125 1.96875,-0.53125 0.85937,0 1.32812,0.25 0.46875,0.23437 0.35938,0.70312 -0.0781,0.28125 -0.26563,0.375 -0.17187,0.0781 -0.42187,0.0625 -0.25,-0.0156 -0.5625,-0.0312 -1.04688,-0.0937 -1.85938,0.21875 -0.8125,0.29688 -1.29687,0.9375 -0.46875,0.64063 -0.46875,1.51563 z m 0.10937,6.28125 q -0.34375,0 -0.53125,-0.1875 -0.1875,-0.1875 -0.1875,-0.51563 v -8.79687 q 0,-0.32813 0.1875,-0.51563 0.1875,-0.1875 0.53125,-0.1875 0.32813,0 0.51563,0.1875 0.1875,0.1875 0.1875,0.51563 v 8.79687 q 0,0.32813 -0.1875,0.51563 -0.1875,0.1875 -0.51563,0.1875 z m 11.57913,0.0937 q -1.4375,0 -2.57812,-0.67188 -1.125,-0.6875 -1.79688,-1.85937 -0.65625,-1.1875 -0.65625,-2.65625 0,-1.48438 0.67188,-2.65625 0.6875,-1.1875 1.85937,-1.85938 1.17188,-0.6875 2.65625,-0.6875 1.46875,0 2.625,0.6875 1.17188,0.67188 1.85938,1.85938 0.6875,1.17187 0.70312,2.65625 l -0.57812,0.45312 q 0,1.34375 -0.625,2.42188 -0.625,1.0625 -1.70313,1.6875 -1.07812,0.625 -2.4375,0.625 z m 0.15625,-1.3125 q 1.07813,0 1.92188,-0.5 0.85937,-0.5 1.34375,-1.39063 0.5,-0.89062 0.5,-1.98437 0,-1.125 -0.5,-2 -0.48438,-0.875 -1.34375,-1.39063 -0.84375,-0.51562 -1.92188,-0.51562 -1.0625,0 -1.92187,0.51562 -0.85938,0.51563 -1.375,1.39063 -0.5,0.875 -0.5,2 0,1.09375 0.5,1.98437 0.51562,0.89063 1.375,1.39063 0.85937,0.5 1.92187,0.5 z m 4.45313,1.21875 q -0.3125,0 -0.51563,-0.1875 -0.20312,-0.20313 -0.20312,-0.51563 v -3.20312 l 0.34375,-1.46875 1.10937,0.28125 v 4.39062 q 0,0.3125 -0.21875,0.51563 -0.20312,0.1875 -0.51562,0.1875 z m 12.27093,0 q -0.3125,0 -0.51562,-0.20313 -0.20313,-0.20312 -0.20313,-0.5 v -4.85937 q 0,-1.15625 -0.4375,-1.89063 -0.4375,-0.75 -1.20312,-1.125 -0.75,-0.375 -1.70313,-0.375 -0.90625,0 -1.65625,0.35938 -0.73437,0.34375 -1.17187,0.96875 -0.42188,0.60937 -0.42188,1.39062 h -1.01562 q 0.0312,-1.17187 0.625,-2.09375 0.60937,-0.92187 1.59375,-1.45312 0.98437,-0.53125 2.20312,-0.53125 1.3125,0 2.35938,0.54687 1.04687,0.54688 1.65625,1.60938 0.60937,1.0625 0.60937,2.59375 v 4.85937 q 0,0.29688 -0.20312,0.5 -0.20313,0.20313 -0.51563,0.20313 z m -8.01562,0 q -0.32813,0 -0.53125,-0.1875 -0.20313,-0.20313 -0.20313,-0.51563 v -8.78125 q 0,-0.32812 0.20313,-0.51562 0.20312,-0.20313 0.53125,-0.20313 0.3125,0 0.5,0.20313 0.20312,0.1875 0.20312,0.51562 v 8.78125 q 0,0.3125 -0.20312,0.51563 -0.1875,0.1875 -0.5,0.1875 z m 15.474,0.0937 q -1.10938,0 -2.1875,-0.375 -1.07813,-0.375 -1.75,-1.125 -0.21875,-0.21875 -0.1875,-0.5 0.0469,-0.28125 0.29687,-0.48438 0.25,-0.1875 0.53125,-0.14062 0.28125,0.0312 0.46875,0.23437 0.45313,0.53125 1.1875,0.8125 0.73438,0.26563 1.64063,0.26563 1.375,0 1.98437,-0.46875 0.625,-0.48438 0.64063,-1.14063 0,-0.67187 -0.64063,-1.10937 -0.625,-0.45313 -2.07812,-0.6875 -1.89063,-0.29688 -2.76563,-1.04688 -0.875,-0.75 -0.875,-1.76562 0,-0.95313 0.5,-1.57813 0.5,-0.64062 1.34375,-0.95312 0.84375,-0.32813 1.84375,-0.32813 1.25,0 2.15625,0.4375 0.90625,0.42188 1.46875,1.14063 0.1875,0.25 0.14063,0.51562 -0.0312,0.25 -0.29688,0.42188 -0.21875,0.125 -0.51562,0.0781 -0.28125,-0.0469 -0.48438,-0.26562 -0.46875,-0.53125 -1.09375,-0.78125 -0.60937,-0.26563 -1.40625,-0.26563 -1.03125,0 -1.65625,0.42188 -0.60937,0.42187 -0.60937,1.0625 0,0.42187 0.23437,0.75 0.23438,0.3125 0.79688,0.5625 0.57812,0.23437 1.60937,0.39062 1.39063,0.23438 2.20313,0.67188 0.8125,0.4375 1.15625,1.03125 0.34375,0.57812 0.34375,1.26562 0,0.875 -0.51563,1.54688 -0.5,0.65625 -1.40625,1.03125 -0.90625,0.375 -2.07812,0.375 z m 7.21197,4.26562 q -0.32812,0 -0.53125,-0.20312 -0.20312,-0.1875 -0.20312,-0.51563 v -8.8125 q 0.0312,-1.45312 0.70312,-2.60937 0.6875,-1.17188 1.84375,-1.84375 1.17188,-0.67188 2.625,-0.67188 1.5,0 2.67188,0.6875 1.17187,0.67188 1.84375,1.85938 0.6875,1.17187 0.6875,2.65625 0,1.46875 -0.65625,2.65625 -0.65625,1.17187 -1.79688,1.85937 -1.14062,0.67188 -2.57812,0.67188 -1.25,0 -2.26563,-0.53125 -1.01562,-0.53125 -1.64062,-1.40625 v 5.48437 q 0,0.32813 -0.20313,0.51563 -0.1875,0.20312 -0.5,0.20312 z m 4.4375,-5.57812 q 1.07813,0 1.9375,-0.5 0.85938,-0.5 1.35938,-1.39063 0.5,-0.89062 0.5,-1.98437 0,-1.125 -0.5,-2 -0.5,-0.875 -1.35938,-1.39063 -0.85937,-0.51562 -1.9375,-0.51562 -1.0625,0 -1.92187,0.51562 -0.85938,0.51563 -1.34375,1.39063 -0.48438,0.875 -0.48438,2 0,1.09375 0.48438,1.98437 0.48437,0.89063 1.34375,1.39063 0.85937,0.5 1.92187,0.5 z m 12.67438,1.3125 q -1.5,0 -2.67187,-0.67188 -1.17188,-0.67187 -1.84375,-1.84375 -0.67188,-1.17187 -0.67188,-2.67187 0,-1.51563 0.67188,-2.6875 0.67187,-1.17188 1.84375,-1.84375 1.17187,-0.67188 2.67187,-0.67188 1.48438,0 2.65625,0.67188 1.17188,0.67187 1.84375,1.84375 0.67188,1.17187 0.6875,2.6875 0,1.5 -0.6875,2.67187 -0.67187,1.17188 -1.84375,1.84375 -1.17187,0.67188 -2.65625,0.67188 z m 0,-1.3125 q 1.07813,0 1.9375,-0.5 0.85938,-0.5 1.34375,-1.375 0.48438,-0.875 0.48438,-2 0,-1.125 -0.48438,-2 -0.48437,-0.89063 -1.34375,-1.39063 -0.85937,-0.51562 -1.9375,-0.51562 -1.07812,0 -1.9375,0.51562 -0.85937,0.5 -1.35937,1.39063 -0.5,0.875 -0.5,2 0,1.125 0.5,2 0.5,0.875 1.35937,1.375 0.85938,0.5 1.9375,0.5 z m 8.58337,-5.0625 q 0.0469,-1.15625 0.59375,-2.0625 0.5625,-0.92188 1.4375,-1.4375 0.89063,-0.53125 1.96875,-0.53125 0.85938,0 1.32813,0.25 0.46875,0.23437 0.35937,0.70312 -0.0781,0.28125 -0.26562,0.375 -0.17188,0.0781 -0.42188,0.0625 -0.25,-0.0156 -0.5625,-0.0312 -1.04687,-0.0937 -1.85937,0.21875 -0.8125,0.29688 -1.29688,0.9375 -0.46875,0.64063 -0.46875,1.51563 z m 0.10938,6.28125 q -0.34375,0 -0.53125,-0.1875 -0.1875,-0.1875 -0.1875,-0.51563 v -8.79687 q 0,-0.32813 0.1875,-0.51563 0.1875,-0.1875 0.53125,-0.1875 0.32812,0 0.51562,0.1875 0.1875,0.1875 0.1875,0.51563 v 8.79687 q 0,0.32813 -0.1875,0.51563 -0.1875,0.1875 -0.51562,0.1875 z m 11.82581,0 q -0.98438,0 -1.76563,-0.46875 -0.76562,-0.46875 -1.21875,-1.28125 -0.45312,-0.8125 -0.45312,-1.84375 v -9.125 q 0,-0.32813 0.1875,-0.53125 0.20312,-0.20313 0.53125,-0.20313 0.3125,0 0.51562,0.20313 0.20313,0.20312 0.20313,0.53125 v 9.125 q 0,0.9375 0.5625,1.54687 0.5625,0.60938 1.4375,0.60938 h 0.5 q 0.29687,0 0.48437,0.20312 0.1875,0.20313 0.1875,0.53125 0,0.3125 -0.21875,0.51563 -0.21875,0.1875 -0.5625,0.1875 z m -4.64063,-8.57813 q -0.28125,0 -0.46875,-0.17187 -0.1875,-0.1875 -0.1875,-0.45313 0,-0.28125 0.1875,-0.45312 0.1875,-0.17188 0.46875,-0.17188 h 4.75 q 0.28125,0 0.46875,0.17188 0.1875,0.17187 0.1875,0.45312 0,0.26563 -0.1875,0.45313 -0.1875,0.17187 -0.46875,0.17187 z"
       fill-rule="nonzero"
       id="path6" />
    <path
       fill="#ffffff"
       d="m 488.06924,397.04837 q -0.17188,0 -0.29688,-0.0937 -0.10937,-0.0781 -0.20312,-0.26563 -0.78125,-1.60937 -1.17188,-3.20312 -0.39062,-1.60938 -0.39062,-3.23438 0,-1.60937 0.39062,-3.20312 0.39063,-1.60938 1.17188,-3.20313 0.15625,-0.34375 0.5,-0.34375 0.20312,0 0.34375,0.15625 0.15625,0.14063 0.15625,0.34375 0,0.17188 -0.0781,0.29688 -1.46875,2.96875 -1.46875,5.96875 0,1.5 0.375,3.01562 0.375,1.5 1.10938,2.96875 0.0781,0.17188 0.0781,0.28125 0,0.21875 -0.15625,0.35938 -0.14062,0.15625 -0.35937,0.15625 z m 5.17761,-2.98438 q -0.85937,0 -1.59375,-0.25 -0.71875,-0.25 -1.25,-0.70312 -0.53125,-0.45313 -0.8125,-1.04688 -0.10937,-0.21875 -0.0156,-0.39062 0.10937,-0.1875 0.35937,-0.25 0.1875,-0.0625 0.35938,0.0312 0.1875,0.0937 0.28125,0.28125 0.1875,0.39062 0.57812,0.70312 0.39063,0.29688 0.92188,0.46875 0.53125,0.15625 1.17187,0.15625 0.70313,0 1.25,-0.21875 0.54688,-0.23437 0.85938,-0.6875 0.3125,-0.45312 0.3125,-1.09375 0,-0.8125 -0.60938,-1.39062 -0.59375,-0.59375 -1.85937,-0.75 -1.5625,-0.1875 -2.45313,-0.96875 -0.875,-0.78125 -0.875,-1.90625 0,-0.8125 0.4375,-1.40625 0.4375,-0.60938 1.1875,-0.9375 0.76563,-0.32813 1.75,-0.32813 0.73438,0 1.32813,0.23438 0.60937,0.23437 1.04687,0.625 0.45313,0.375 0.73438,0.82812 0.125,0.20313 0.0781,0.40625 -0.0469,0.20313 -0.23437,0.3125 -0.1875,0.0937 -0.40625,0.0312 -0.20313,-0.0781 -0.3125,-0.26562 -0.1875,-0.29688 -0.5,-0.5625 -0.29688,-0.28125 -0.71875,-0.4375 -0.42188,-0.17188 -1.03125,-0.1875 -1.04688,0 -1.6875,0.45312 -0.64063,0.45313 -0.64063,1.29688 0,0.45312 0.23438,0.84375 0.25,0.375 0.79687,0.65625 0.54688,0.26562 1.48438,0.39062 1.67187,0.25 2.46875,1.03125 0.8125,0.76563 0.8125,2.03125 0,0.71875 -0.26563,1.28125 -0.25,0.54688 -0.73437,0.9375 -0.46875,0.375 -1.10938,0.57813 -0.625,0.20312 -1.34375,0.20312 z m 8.33881,-0.14062 q -0.70313,0 -1.26563,-0.32813 -0.54687,-0.34375 -0.875,-0.92187 -0.3125,-0.57813 -0.3125,-1.32813 v -6.51562 q 0,-0.21875 0.14063,-0.35938 0.14062,-0.15625 0.375,-0.15625 0.21875,0 0.35937,0.15625 0.15625,0.14063 0.15625,0.35938 v 6.51562 q 0,0.6875 0.39063,1.125 0.40625,0.42188 1.03125,0.42188 h 0.35937 q 0.21875,0 0.34375,0.15625 0.14063,0.14062 0.14063,0.375 0,0.21875 -0.15625,0.35937 -0.15625,0.14063 -0.40625,0.14063 z m -3.3125,-6.125 q -0.20313,0 -0.34375,-0.125 -0.125,-0.14063 -0.125,-0.32813 0,-0.1875 0.125,-0.3125 0.14062,-0.14062 0.34375,-0.14062 h 3.39062 q 0.20313,0 0.32813,0.14062 0.14062,0.125 0.14062,0.3125 0,0.1875 -0.14062,0.32813 -0.125,0.125 -0.32813,0.125 z m 9.13913,6.1875 q -1.04688,0 -1.89063,-0.48438 -0.84375,-0.48437 -1.32812,-1.3125 -0.48438,-0.84375 -0.48438,-1.92187 0,-1.04688 0.46875,-1.89063 0.48438,-0.84375 1.29688,-1.32812 0.8125,-0.48438 1.82812,-0.48438 0.89063,0 1.60938,0.39063 0.73437,0.375 1.17187,1 v -3.92188 q 0,-0.23437 0.14063,-0.375 0.15625,-0.14062 0.375,-0.14062 0.23437,0 0.375,0.14062 0.14062,0.14063 0.14062,0.375 v 6.29688 q -0.0156,1.03125 -0.51562,1.875 -0.48438,0.82812 -1.3125,1.3125 -0.82813,0.46875 -1.875,0.46875 z m 0,-0.92188 q 0.78125,0 1.375,-0.35937 0.60937,-0.375 0.95312,-1 0.35938,-0.64063 0.35938,-1.4375 0,-0.78125 -0.35938,-1.40625 -0.34375,-0.64063 -0.95312,-1 -0.59375,-0.35938 -1.375,-0.35938 -0.75,0 -1.375,0.35938 -0.60938,0.35937 -0.96875,1 -0.35938,0.625 -0.35938,1.40625 0,0.79687 0.35938,1.4375 0.35937,0.625 0.96875,1 0.625,0.35937 1.375,0.35937 z m 6.84485,0.85938 q -0.25,0 -0.39063,-0.14063 -0.14062,-0.14062 -0.14062,-0.375 v -6.25 q 0,-0.25 0.14062,-0.39062 0.14063,-0.14063 0.39063,-0.14063 0.21875,0 0.35937,0.14063 0.14063,0.14062 0.14063,0.39062 v 6.25 q 0,0.23438 -0.14063,0.375 -0.14062,0.14063 -0.35937,0.14063 z m -0.0156,-8.67188 q -0.29687,0 -0.51562,-0.21875 -0.20313,-0.21875 -0.20313,-0.51562 0,-0.34375 0.21875,-0.53125 0.21875,-0.1875 0.51563,-0.1875 0.28125,0 0.5,0.1875 0.21875,0.1875 0.21875,0.53125 0,0.29687 -0.21875,0.51562 -0.20313,0.21875 -0.51563,0.21875 z m 6.44556,8.73438 q -1.0625,0 -1.90625,-0.46875 -0.84375,-0.48438 -1.32813,-1.32813 -0.46875,-0.84375 -0.46875,-1.90625 0,-1.07812 0.46875,-1.90625 0.48438,-0.84375 1.32813,-1.32812 0.84375,-0.48438 1.90625,-0.48438 1.0625,0 1.89062,0.48438 0.84375,0.48437 1.3125,1.32812 0.48438,0.82813 0.5,1.90625 0,1.0625 -0.48437,1.90625 -0.48438,0.84375 -1.32813,1.32813 -0.82812,0.46875 -1.89062,0.46875 z m 0,-0.92188 q 0.78125,0 1.39062,-0.35937 0.60938,-0.375 0.95313,-1 0.34375,-0.625 0.34375,-1.42188 0,-0.79687 -0.34375,-1.42187 -0.34375,-0.64063 -0.95313,-1 -0.60937,-0.35938 -1.39062,-0.35938 -0.76563,0 -1.39063,0.35938 -0.60937,0.35937 -0.96875,1 -0.34375,0.625 -0.34375,1.42187 0,0.79688 0.34375,1.42188 0.35938,0.625 0.96875,1 0.625,0.35937 1.39063,0.35937 z m 5.53869,1.90625 q -0.28125,0 -0.4375,-0.23437 -0.15625,-0.21875 -0.0312,-0.5 l 4.1875,-10.4375 q 0.0469,-0.15625 0.17188,-0.23438 0.14062,-0.0781 0.29687,-0.0781 0.29688,0 0.42188,0.23437 0.14062,0.23438 0.0469,0.5 l -4.1875,10.45313 q -0.0625,0.15625 -0.20312,0.21875 -0.125,0.0781 -0.26563,0.0781 z m 9.75086,-0.90625 q -0.85938,0 -1.59375,-0.25 -0.71875,-0.25 -1.25,-0.70312 -0.53125,-0.45313 -0.8125,-1.04688 -0.10938,-0.21875 -0.0156,-0.39062 0.10938,-0.1875 0.35938,-0.25 0.1875,-0.0625 0.35937,0.0312 0.1875,0.0937 0.28125,0.28125 0.1875,0.39062 0.57813,0.70312 0.39062,0.29688 0.92187,0.46875 0.53125,0.15625 1.17188,0.15625 0.70312,0 1.25,-0.21875 0.54687,-0.23437 0.85937,-0.6875 0.3125,-0.45312 0.3125,-1.09375 0,-0.8125 -0.60937,-1.39062 -0.59375,-0.59375 -1.85938,-0.75 -1.5625,-0.1875 -2.45312,-0.96875 -0.875,-0.78125 -0.875,-1.90625 0,-0.8125 0.4375,-1.40625 0.4375,-0.60938 1.1875,-0.9375 0.76562,-0.32813 1.75,-0.32813 0.73437,0 1.32812,0.23438 0.60938,0.23437 1.04688,0.625 0.45312,0.375 0.73437,0.82812 0.125,0.20313 0.0781,0.40625 -0.0469,0.20313 -0.23438,0.3125 -0.1875,0.0937 -0.40625,0.0312 -0.20312,-0.0781 -0.3125,-0.26562 -0.1875,-0.29688 -0.5,-0.5625 -0.29687,-0.28125 -0.71875,-0.4375 -0.42187,-0.17188 -1.03125,-0.1875 -1.04687,0 -1.6875,0.45312 -0.64062,0.45313 -0.64062,1.29688 0,0.45312 0.23437,0.84375 0.25,0.375 0.79688,0.65625 0.54687,0.26562 1.48437,0.39062 1.67188,0.25 2.46875,1.03125 0.8125,0.76563 0.8125,2.03125 0,0.71875 -0.26562,1.28125 -0.25,0.54688 -0.73438,0.9375 -0.46875,0.375 -1.10937,0.57813 -0.625,0.20312 -1.34375,0.20312 z m 8.82318,0 q -0.85937,0 -1.59375,-0.25 -0.71875,-0.25 -1.25,-0.70312 -0.53125,-0.45313 -0.8125,-1.04688 -0.10937,-0.21875 -0.0156,-0.39062 0.10937,-0.1875 0.35937,-0.25 0.1875,-0.0625 0.35938,0.0312 0.1875,0.0937 0.28125,0.28125 0.1875,0.39062 0.57812,0.70312 0.39063,0.29688 0.92188,0.46875 0.53125,0.15625 1.17187,0.15625 0.70313,0 1.25,-0.21875 0.54688,-0.23437 0.85938,-0.6875 0.3125,-0.45312 0.3125,-1.09375 0,-0.8125 -0.60938,-1.39062 -0.59375,-0.59375 -1.85937,-0.75 -1.5625,-0.1875 -2.45313,-0.96875 -0.875,-0.78125 -0.875,-1.90625 0,-0.8125 0.4375,-1.40625 0.4375,-0.60938 1.1875,-0.9375 0.76563,-0.32813 1.75,-0.32813 0.73438,0 1.32813,0.23438 0.60937,0.23437 1.04687,0.625 0.45313,0.375 0.73438,0.82812 0.125,0.20313 0.0781,0.40625 -0.0469,0.20313 -0.23437,0.3125 -0.1875,0.0937 -0.40625,0.0312 -0.20313,-0.0781 -0.3125,-0.26562 -0.1875,-0.29688 -0.5,-0.5625 -0.29688,-0.28125 -0.71875,-0.4375 -0.42188,-0.17188 -1.03125,-0.1875 -1.04688,0 -1.6875,0.45312 -0.64063,0.45313 -0.64063,1.29688 0,0.45312 0.23438,0.84375 0.25,0.375 0.79687,0.65625 0.54688,0.26562 1.48438,0.39062 1.67187,0.25 2.46875,1.03125 0.8125,0.76563 0.8125,2.03125 0,0.71875 -0.26563,1.28125 -0.25,0.54688 -0.73437,0.9375 -0.46875,0.375 -1.10938,0.57813 -0.625,0.20312 -1.34375,0.20312 z m 6.15131,-0.14062 q -0.23438,0 -0.39063,-0.14063 -0.14062,-0.15625 -0.14062,-0.375 v -9.375 q 0,-0.21875 0.14062,-0.35937 0.15625,-0.15625 0.39063,-0.15625 h 6.25 q 0.20312,0 0.35937,0.14062 0.15625,0.14063 0.15625,0.35938 0,0.20312 -0.15625,0.35937 -0.15625,0.14063 -0.35937,0.14063 h -5.73438 v 3.67187 h 4.17188 q 0.21875,0 0.35937,0.15625 0.15625,0.14063 0.15625,0.35938 0,0.20312 -0.15625,0.35937 -0.14062,0.14063 -0.35937,0.14063 h -4.17188 v 3.71875 h 5.73438 q 0.20312,0 0.35937,0.15625 0.15625,0.14062 0.15625,0.34375 0,0.21875 -0.15625,0.35937 -0.15625,0.14063 -0.35937,0.14063 z m 8.39489,1.04687 q -0.28125,0 -0.4375,-0.23437 -0.15625,-0.21875 -0.0312,-0.5 l 4.1875,-10.4375 q 0.0469,-0.15625 0.17188,-0.23438 0.14062,-0.0781 0.29687,-0.0781 0.29688,0 0.42188,0.23437 0.14062,0.23438 0.0469,0.5 l -4.1875,10.45313 q -0.0625,0.15625 -0.20312,0.21875 -0.125,0.0781 -0.26563,0.0781 z m 6.51654,-1.04687 q -0.32812,0 -0.5625,-0.21875 -0.21875,-0.23438 -0.21875,-0.54688 0,-0.34375 0.21875,-0.5625 0.23438,-0.23437 0.5625,-0.23437 0.32813,0 0.54688,0.23437 0.23437,0.23438 0.23437,0.5625 0,0.3125 -0.23437,0.54688 -0.21875,0.21875 -0.54688,0.21875 z m 3.09375,0 q -0.3125,0 -0.54687,-0.21875 -0.21875,-0.23438 -0.21875,-0.54688 0,-0.34375 0.21875,-0.5625 0.23437,-0.23437 0.54687,-0.23437 0.32813,0 0.5625,0.23437 0.23438,0.23438 0.23438,0.5625 0,0.3125 -0.23438,0.54688 -0.21875,0.21875 -0.5625,0.21875 z m 3.10938,0 q -0.32813,0 -0.54688,-0.21875 -0.21875,-0.23438 -0.21875,-0.54688 0,-0.32812 0.21875,-0.5625 0.21875,-0.23437 0.54688,-0.23437 0.32812,0 0.54687,0.23437 0.23438,0.21875 0.23438,0.5625 0,0.3125 -0.23438,0.54688 -0.21875,0.21875 -0.54687,0.21875 z m 2.52588,3.125 q -0.21875,0 -0.375,-0.15625 -0.14063,-0.14063 -0.14063,-0.35938 0,-0.10937 0.0781,-0.28125 0.73437,-1.46875 1.10937,-2.96875 0.375,-1.51562 0.375,-3.01562 0,-3 -1.46875,-5.96875 -0.0781,-0.125 -0.0937,-0.29688 0,-0.20312 0.15625,-0.34375 0.15625,-0.15625 0.35938,-0.15625 0.34375,0 0.5,0.34375 0.79687,1.59375 1.17187,3.20313 0.39063,1.59375 0.39063,3.20312 0,1.625 -0.39063,3.23438 -0.39062,1.59375 -1.17187,3.20312 -0.10938,0.1875 -0.21875,0.26563 -0.10938,0.0937 -0.28125,0.0937 z"
       fill-rule="nonzero"
       id="path7" />
    <path
       fill="#ffffff"
       d="m 552.2231,187.61154 h 190.2677 v 151.3386 H 552.2231 Z"
       fill-rule="evenodd"
       id="path8" />
    <path
       stroke="#666666"
       stroke-width="1"
       stroke-linejoin="round"
       stroke-linecap="butt"
       d="m 552.2231,187.61154 h 190.2677 v 151.3386 H 552.2231 Z"
       fill-rule="evenodd"
       id="path9" />
    <path
       fill="#666666"
       d="m 594.04736,214.53154 q -0.29687,0 -0.51562,-0.20313 -0.21875,-0.21875 -0.21875,-0.53125 v -13.10937 q 0,-0.3125 0.21875,-0.51563 0.21875,-0.21875 0.51562,-0.21875 0.45313,0 0.65625,0.375 l 6.28125,12.5 h -0.625 l 6.17188,-12.5 q 0.21875,-0.375 0.65625,-0.375 0.29687,0 0.5,0.21875 0.20312,0.20313 0.20312,0.51563 v 13.10937 q 0,0.3125 -0.20312,0.53125 -0.20313,0.20313 -0.5,0.20313 -0.32813,0 -0.54688,-0.20313 -0.20312,-0.21875 -0.20312,-0.53125 v -11.21875 l 0.3125,0.0156 -5.5,11.25 q -0.20313,0.35937 -0.64063,0.35937 -0.46875,0 -0.67187,-0.45312 l -5.53125,-11.07813 0.375,-0.0937 v 11.21875 q 0,0.3125 -0.21875,0.53125 -0.21875,0.20313 -0.51563,0.20313 z m 24.11426,0.1875 q -1.5,0 -2.82813,-0.57813 -1.3125,-0.57812 -2.3125,-1.60937 -0.98437,-1.04688 -1.54687,-2.39063 -0.5625,-1.35937 -0.5625,-2.90625 0,-1.53125 0.54687,-2.875 0.54688,-1.35937 1.54688,-2.375 1,-1.03125 2.3125,-1.60937 1.32812,-0.59375 2.84375,-0.59375 1.34375,0 2.4375,0.39062 1.10937,0.39063 2.14062,1.25 0.17188,0.125 0.1875,0.3125 0.0312,0.17188 -0.0469,0.32813 -0.0625,0.15625 -0.21875,0.23437 -0.0312,0.14063 -0.1875,0.21875 -0.14063,0.0781 -0.34375,0.0625 -0.1875,-0.0312 -0.375,-0.17187 -0.73438,-0.64063 -1.59375,-0.9375 -0.85938,-0.3125 -2,-0.3125 -1.20313,0 -2.26563,0.48437 -1.04687,0.48438 -1.85937,1.32813 -0.79688,0.82812 -1.25,1.9375 -0.45313,1.09375 -0.45313,2.32812 0,1.26563 0.45313,2.375 0.45312,1.09375 1.25,1.9375 0.8125,0.84375 1.85937,1.32813 1.0625,0.46875 2.26563,0.46875 1.03125,0 1.9375,-0.32813 0.92187,-0.34375 1.75,-0.98437 0.21875,-0.1875 0.46875,-0.14063 0.25,0.0312 0.4375,0.21875 0.1875,0.1875 0.1875,0.48438 0,0.14062 -0.0469,0.26562 -0.0469,0.125 -0.15625,0.25 -0.95312,0.875 -2.125,1.25 -1.17187,0.35938 -2.45312,0.35938 z m 8.5155,-0.1875 q -0.3125,0 -0.53125,-0.20313 -0.20312,-0.20312 -0.20312,-0.53125 v -13.10937 q 0,-0.3125 0.20312,-0.51563 0.21875,-0.21875 0.53125,-0.21875 h 3.73438 q 1.375,0 2.4375,0.60938 1.0625,0.60937 1.65625,1.67187 0.60937,1.0625 0.60937,2.46875 0,1.35938 -0.60937,2.42188 -0.59375,1.04687 -1.65625,1.65625 -1.0625,0.59375 -2.4375,0.59375 h -3 v 4.42187 q 0,0.32813 -0.21875,0.53125 -0.20313,0.20313 -0.51563,0.20313 z m 0.73438,-6.54688 h 3 q 0.95312,0 1.6875,-0.42187 0.75,-0.42188 1.17187,-1.15625 0.42188,-0.75 0.42188,-1.70313 0,-1 -0.42188,-1.73437 -0.42187,-0.75 -1.17187,-1.17188 -0.73438,-0.4375 -1.6875,-0.4375 h -3 z m 19.89953,6.73438 q -1.1875,0 -2.21875,-0.34375 -1.01562,-0.34375 -1.76562,-0.96875 -0.73438,-0.64063 -1.125,-1.48438 -0.15625,-0.29687 -0.0156,-0.54687 0.14063,-0.26563 0.48438,-0.34375 0.25,-0.0781 0.5,0.0469 0.26562,0.125 0.39062,0.39063 0.28125,0.54687 0.8125,0.98437 0.54688,0.42188 1.29688,0.65625 0.75,0.23438 1.64062,0.23438 0.98438,0 1.75,-0.32813 0.76563,-0.32812 1.20313,-0.95312 0.4375,-0.625 0.4375,-1.53125 0,-1.125 -0.84375,-1.9375 -0.82813,-0.82813 -2.625,-1.0625 -2.1875,-0.25 -3.42188,-1.34375 -1.21875,-1.09375 -1.21875,-2.6875 0,-1.125 0.59375,-1.96875 0.60938,-0.84375 1.67188,-1.29688 1.07812,-0.45312 2.45312,-0.45312 1.03125,0 1.85938,0.32812 0.84375,0.3125 1.46875,0.84375 0.625,0.53125 1.01562,1.17188 0.1875,0.29687 0.125,0.57812 -0.0625,0.28125 -0.32812,0.42188 -0.28125,0.14062 -0.57813,0.0469 -0.28125,-0.0937 -0.42187,-0.35937 -0.28125,-0.42188 -0.70313,-0.79688 -0.42187,-0.39062 -1.03125,-0.60937 -0.59375,-0.23438 -1.42187,-0.25 -1.48438,0 -2.375,0.625 -0.89063,0.625 -0.89063,1.8125 0,0.64062 0.32813,1.17187 0.34375,0.53125 1.10937,0.92188 0.78125,0.375 2.07813,0.5625 2.34375,0.32812 3.46875,1.42187 1.125,1.09375 1.125,2.84375 0,1.01563 -0.35938,1.79688 -0.35937,0.78125 -1.03125,1.3125 -0.65625,0.53125 -1.54687,0.8125 -0.89063,0.28125 -1.89063,0.28125 z m 12.31922,-0.0937 q -1.51563,0 -2.6875,-0.65625 -1.15625,-0.67188 -1.82813,-1.84375 -0.65625,-1.17188 -0.65625,-2.6875 0,-1.53125 0.625,-2.6875 0.625,-1.17188 1.71875,-1.84375 1.10938,-0.67188 2.54688,-0.67188 1.40625,0 2.45312,0.64063 1.0625,0.64062 1.64063,1.78125 0.57812,1.14062 0.57812,2.59375 0,0.29687 -0.1875,0.48437 -0.1875,0.17188 -0.48437,0.17188 h -7.92188 v -1.20313 h 8.07813 l -0.79688,0.57813 q 0.0156,-1.07813 -0.40625,-1.9375 -0.40625,-0.85938 -1.15625,-1.34375 -0.75,-0.48438 -1.79687,-0.48438 -1.0625,0 -1.875,0.51563 -0.79688,0.5 -1.23438,1.39062 -0.4375,0.875 -0.4375,2.01563 0,1.14062 0.48438,2.01562 0.5,0.875 1.35937,1.39063 0.85938,0.5 1.98438,0.5 0.67187,0 1.34375,-0.23438 0.6875,-0.23437 1.09375,-0.59375 0.20312,-0.17187 0.46875,-0.17187 0.26562,-0.0156 0.4375,0.14062 0.25,0.21875 0.25,0.48438 0.0156,0.25 -0.20313,0.4375 -0.625,0.53125 -1.57812,0.875 -0.9375,0.34375 -1.8125,0.34375 z m 7.42364,-6.375 q 0.0469,-1.15625 0.59375,-2.0625 0.5625,-0.92188 1.4375,-1.4375 0.89063,-0.53125 1.96875,-0.53125 0.85938,0 1.32813,0.25 0.46875,0.23437 0.35937,0.70312 -0.0781,0.28125 -0.26562,0.375 -0.17188,0.0781 -0.42188,0.0625 -0.25,-0.0156 -0.5625,-0.0312 -1.04687,-0.0937 -1.85937,0.21875 -0.8125,0.29688 -1.29688,0.9375 -0.46875,0.64063 -0.46875,1.51563 z m 0.10938,6.28125 q -0.34375,0 -0.53125,-0.1875 -0.1875,-0.1875 -0.1875,-0.51563 v -8.79687 q 0,-0.32813 0.1875,-0.51563 0.1875,-0.1875 0.53125,-0.1875 0.32812,0 0.51562,0.1875 0.1875,0.1875 0.1875,0.51563 v 8.79687 q 0,0.32813 -0.1875,0.51563 -0.1875,0.1875 -0.51562,0.1875 z m 11.32586,0 q -0.45312,0 -0.67187,-0.48438 l -4.14063,-8.78125 q -0.10937,-0.25 -0.0312,-0.48437 0.0937,-0.25 0.375,-0.375 0.26563,-0.14063 0.5,-0.0469 0.25,0.0937 0.375,0.34375 l 3.98438,8.59375 h -0.76563 l 3.92188,-8.59375 q 0.10937,-0.26562 0.375,-0.34375 0.26562,-0.0937 0.53125,0.0156 0.26562,0.14062 0.35937,0.39062 0.0937,0.25 -0.0156,0.46875 l -4.09375,8.8125 q -0.21875,0.48438 -0.70313,0.48438 z m 11.08417,0.0937 q -1.51562,0 -2.6875,-0.65625 -1.15625,-0.67188 -1.82812,-1.84375 -0.65625,-1.17188 -0.65625,-2.6875 0,-1.53125 0.625,-2.6875 0.625,-1.17188 1.71875,-1.84375 1.10937,-0.67188 2.54687,-0.67188 1.40625,0 2.45313,0.64063 1.0625,0.64062 1.64062,1.78125 0.57813,1.14062 0.57813,2.59375 0,0.29687 -0.1875,0.48437 -0.1875,0.17188 -0.48438,0.17188 h -7.92187 v -1.20313 h 8.07812 l -0.79687,0.57813 q 0.0156,-1.07813 -0.40625,-1.9375 -0.40625,-0.85938 -1.15625,-1.34375 -0.75,-0.48438 -1.79688,-0.48438 -1.0625,0 -1.875,0.51563 -0.79687,0.5 -1.23437,1.39062 -0.4375,0.875 -0.4375,2.01563 0,1.14062 0.48437,2.01562 0.5,0.875 1.35938,1.39063 0.85937,0.5 1.98437,0.5 0.67188,0 1.34375,-0.23438 0.6875,-0.23437 1.09375,-0.59375 0.20313,-0.17187 0.46875,-0.17187 0.26563,-0.0156 0.4375,0.14062 0.25,0.21875 0.25,0.48438 0.0156,0.25 -0.20312,0.4375 -0.625,0.53125 -1.57813,0.875 -0.9375,0.34375 -1.8125,0.34375 z m 7.42371,-6.375 q 0.0469,-1.15625 0.59375,-2.0625 0.5625,-0.92188 1.4375,-1.4375 0.89062,-0.53125 1.96875,-0.53125 0.85937,0 1.32812,0.25 0.46875,0.23437 0.35938,0.70312 -0.0781,0.28125 -0.26563,0.375 -0.17187,0.0781 -0.42187,0.0625 -0.25,-0.0156 -0.5625,-0.0312 -1.04688,-0.0937 -1.85938,0.21875 -0.8125,0.29688 -1.29687,0.9375 -0.46875,0.64063 -0.46875,1.51563 z m 0.10937,6.28125 q -0.34375,0 -0.53125,-0.1875 -0.1875,-0.1875 -0.1875,-0.51563 v -8.79687 q 0,-0.32813 0.1875,-0.51563 0.1875,-0.1875 0.53125,-0.1875 0.32813,0 0.51563,0.1875 0.1875,0.1875 0.1875,0.51563 v 8.79687 q 0,0.32813 -0.1875,0.51563 -0.1875,0.1875 -0.51563,0.1875 z"
       fill-rule="nonzero"
       id="path10" />
    <path
       fill="#ffffff"
       d="m 566.38055,227.44882 h 161.95276 v 99.87402 H 566.38055 Z"
       fill-rule="evenodd"
       id="path11" />
    <path
       stroke="#666666"
       stroke-width="1"
       stroke-linejoin="round"
       stroke-linecap="butt"
       d="m 566.38055,227.44882 h 161.95276 v 99.87402 H 566.38055 Z"
       fill-rule="evenodd"
       id="path12" />
    <path
       fill="#666666"
       d="m 596.3676,251.80882 q -0.25,0 -0.4375,-0.1875 -0.1875,-0.1875 -0.1875,-0.4375 v -11.25 q 0,-0.26563 0.1875,-0.4375 0.1875,-0.1875 0.4375,-0.1875 0.39063,0 0.5625,0.32812 l 5.39063,10.71875 h -0.54688 l 5.29688,-10.71875 q 0.20312,-0.32812 0.5625,-0.32812 0.26562,0 0.4375,0.1875 0.17187,0.17187 0.17187,0.4375 v 11.25 q 0,0.25 -0.17187,0.4375 -0.17188,0.1875 -0.4375,0.1875 -0.26563,0 -0.45313,-0.1875 -0.1875,-0.1875 -0.1875,-0.4375 v -9.625 l 0.28125,0.0156 -4.71875,9.64063 q -0.1875,0.3125 -0.54687,0.3125 -0.40625,0 -0.57813,-0.39063 l -4.75,-9.5 0.3125,-0.0781 v 9.625 q 0,0.25 -0.1875,0.4375 -0.17187,0.1875 -0.4375,0.1875 z m 20.69605,0.15625 q -1.29688,0 -2.4375,-0.48438 -1.125,-0.5 -1.98438,-1.39062 -0.84375,-0.89063 -1.32812,-2.04688 -0.48438,-1.15625 -0.48438,-2.48437 0,-1.3125 0.46875,-2.46875 0.48438,-1.17188 1.32813,-2.04688 0.85937,-0.875 1.98437,-1.375 1.14063,-0.51562 2.45313,-0.51562 1.15625,0 2.09375,0.34375 0.9375,0.32812 1.82812,1.0625 0.14063,0.10937 0.15625,0.26562 0.0312,0.15625 -0.0312,0.29688 -0.0625,0.125 -0.1875,0.1875 -0.0312,0.125 -0.17187,0.20312 -0.125,0.0625 -0.29688,0.0469 -0.15625,-0.0156 -0.32812,-0.15625 -0.625,-0.53125 -1.35938,-0.79688 -0.73437,-0.26562 -1.70312,-0.26562 -1.04688,0 -1.95313,0.42187 -0.89062,0.40625 -1.59375,1.125 -0.6875,0.71875 -1.07812,1.67188 -0.39063,0.9375 -0.39063,2 0,1.07812 0.39063,2.03125 0.39062,0.9375 1.07812,1.65625 0.70313,0.71875 1.59375,1.125 0.90625,0.40625 1.95313,0.40625 0.875,0 1.65625,-0.28125 0.78125,-0.28125 1.5,-0.82813 0.1875,-0.15625 0.39062,-0.125 0.21875,0.0312 0.375,0.1875 0.17188,0.15625 0.17188,0.42188 0,0.125 -0.0469,0.23437 -0.0312,0.0937 -0.125,0.20313 -0.82812,0.75 -1.84375,1.0625 -1,0.3125 -2.07812,0.3125 z m 7.28802,-0.15625 q -0.26562,0 -0.45312,-0.17188 -0.17188,-0.1875 -0.17188,-0.45312 v -11.25 q 0,-0.26563 0.17188,-0.4375 0.1875,-0.1875 0.45312,-0.1875 h 3.20313 q 1.1875,0 2.09375,0.53125 0.92187,0.51562 1.42187,1.4375 0.51563,0.90625 0.51563,2.09375 0,1.17187 -0.51563,2.07812 -0.5,0.90625 -1.42187,1.42188 -0.90625,0.51562 -2.09375,0.51562 h -2.57813 v 3.79688 q 0,0.26562 -0.17187,0.45312 -0.17188,0.17188 -0.45313,0.17188 z m 0.625,-5.60938 h 2.57813 q 0.8125,0 1.45312,-0.35937 0.64063,-0.375 1,-1 0.35938,-0.64063 0.35938,-1.46875 0,-0.84375 -0.35938,-1.48438 -0.35937,-0.64062 -1,-1 -0.64062,-0.375 -1.45312,-0.375 h -2.57813 z m 17.07373,5.76563 q -1.01563,0 -1.89063,-0.29688 -0.875,-0.29687 -1.51562,-0.82812 -0.64063,-0.54688 -0.96875,-1.26563 -0.14063,-0.26562 -0.0156,-0.46875 0.125,-0.21875 0.40625,-0.3125 0.23438,-0.0625 0.4375,0.0625 0.21875,0.10938 0.32813,0.32813 0.25,0.46875 0.70312,0.84375 0.46875,0.35937 1.10938,0.5625 0.64062,0.1875 1.40625,0.1875 0.84375,0 1.5,-0.26563 0.65625,-0.28125 1.03125,-0.8125 0.39062,-0.54687 0.39062,-1.3125 0,-0.98437 -0.73437,-1.6875 -0.71875,-0.70312 -2.25,-0.89062 -1.875,-0.21875 -2.9375,-1.15625 -1.04688,-0.9375 -1.04688,-2.29688 0,-0.98437 0.51563,-1.70312 0.53125,-0.71875 1.4375,-1.10938 0.90625,-0.39062 2.09375,-0.39062 0.875,0 1.59375,0.28125 0.73437,0.28125 1.26562,0.73437 0.53125,0.45313 0.875,1 0.15625,0.25 0.0937,0.5 -0.0469,0.23438 -0.28125,0.35938 -0.23437,0.125 -0.48437,0.0469 -0.25,-0.0937 -0.375,-0.3125 -0.23438,-0.375 -0.59375,-0.70312 -0.35938,-0.32813 -0.875,-0.51563 -0.51563,-0.1875 -1.23438,-0.20312 -1.26562,0 -2.03125,0.53125 -0.76562,0.53125 -0.76562,1.5625 0,0.54687 0.28125,1 0.29687,0.45312 0.95312,0.78125 0.67188,0.32812 1.78125,0.48437 2,0.29688 2.96875,1.23438 0.96875,0.9375 0.96875,2.4375 0,0.85937 -0.3125,1.53125 -0.3125,0.67187 -0.875,1.14062 -0.5625,0.45313 -1.32812,0.6875 -0.76563,0.23438 -1.625,0.23438 z m 10.56079,-0.0781 q -1.29687,0 -2.29687,-0.5625 -1,-0.57812 -1.57813,-1.57812 -0.5625,-1.01563 -0.5625,-2.3125 0,-1.3125 0.53125,-2.3125 0.54688,-1 1.48438,-1.5625 0.95312,-0.57813 2.1875,-0.57813 1.21875,0 2.10937,0.54688 0.90625,0.54687 1.40625,1.53125 0.5,0.96875 0.5,2.21875 0,0.26562 -0.17187,0.42187 -0.15625,0.14063 -0.40625,0.14063 h -6.79688 v -1.01563 h 6.92188 l -0.6875,0.48438 q 0.0156,-0.92188 -0.34375,-1.65625 -0.34375,-0.73438 -1,-1.15625 -0.64063,-0.42188 -1.53125,-0.42188 -0.92188,0 -1.60938,0.4375 -0.6875,0.4375 -1.0625,1.20313 -0.375,0.75 -0.375,1.71875 0,0.98437 0.42188,1.73437 0.42187,0.75 1.15625,1.1875 0.75,0.42188 1.70312,0.42188 0.57813,0 1.15625,-0.1875 0.59375,-0.20313 0.9375,-0.51563 0.1875,-0.14062 0.40625,-0.14062 0.21875,-0.0156 0.375,0.10937 0.21875,0.20313 0.21875,0.42188 0.0156,0.21875 -0.1875,0.39062 -0.51562,0.4375 -1.34375,0.73438 -0.8125,0.29687 -1.5625,0.29687 z m 8.91779,0 q -0.95313,0 -1.875,-0.3125 -0.92188,-0.32812 -1.5,-0.96875 -0.1875,-0.1875 -0.15625,-0.42187 0.0469,-0.25 0.25,-0.42188 0.21875,-0.15625 0.45312,-0.125 0.25,0.0312 0.40625,0.20313 0.39063,0.45312 1.01563,0.6875 0.64062,0.23437 1.40625,0.23437 1.1875,0 1.70312,-0.40625 0.53125,-0.40625 0.54688,-0.98437 0,-0.57813 -0.54688,-0.95313 -0.54687,-0.375 -1.78125,-0.57812 -1.625,-0.25 -2.375,-0.89063 -0.75,-0.64062 -0.75,-1.53125 0,-0.8125 0.42188,-1.34375 0.4375,-0.54687 1.15625,-0.8125 0.71875,-0.28125 1.59375,-0.28125 1.0625,0 1.84375,0.375 0.78125,0.35938 1.25,0.98438 0.17187,0.20312 0.125,0.4375 -0.0312,0.21875 -0.25,0.35937 -0.1875,0.10938 -0.4375,0.0781 -0.25,-0.0469 -0.42188,-0.23438 -0.40625,-0.46875 -0.9375,-0.6875 -0.51562,-0.21875 -1.20312,-0.21875 -0.89063,0 -1.42188,0.35938 -0.51562,0.35937 -0.51562,0.90625 0,0.375 0.1875,0.65625 0.20312,0.26562 0.6875,0.46875 0.5,0.20312 1.375,0.35937 1.20312,0.1875 1.89062,0.5625 0.70313,0.375 1,0.875 0.29688,0.5 0.29688,1.09375 0,0.75 -0.4375,1.32813 -0.4375,0.5625 -1.21875,0.89062 -0.78125,0.3125 -1.78125,0.3125 z m 8.62402,0 q -0.95313,0 -1.875,-0.3125 -0.92188,-0.32812 -1.5,-0.96875 -0.1875,-0.1875 -0.15625,-0.42187 0.0469,-0.25 0.25,-0.42188 0.21875,-0.15625 0.45312,-0.125 0.25,0.0312 0.40625,0.20313 0.39063,0.45312 1.01563,0.6875 0.64062,0.23437 1.40625,0.23437 1.1875,0 1.70312,-0.40625 0.53125,-0.40625 0.54688,-0.98437 0,-0.57813 -0.54688,-0.95313 -0.54687,-0.375 -1.78125,-0.57812 -1.625,-0.25 -2.375,-0.89063 -0.75,-0.64062 -0.75,-1.53125 0,-0.8125 0.42188,-1.34375 0.4375,-0.54687 1.15625,-0.8125 0.71875,-0.28125 1.59375,-0.28125 1.0625,0 1.84375,0.375 0.78125,0.35938 1.25,0.98438 0.17187,0.20312 0.125,0.4375 -0.0312,0.21875 -0.25,0.35937 -0.1875,0.10938 -0.4375,0.0781 -0.25,-0.0469 -0.42188,-0.23438 -0.40625,-0.46875 -0.9375,-0.6875 -0.51562,-0.21875 -1.20312,-0.21875 -0.89063,0 -1.42188,0.35938 -0.51562,0.35937 -0.51562,0.90625 0,0.375 0.1875,0.65625 0.20312,0.26562 0.6875,0.46875 0.5,0.20312 1.375,0.35937 1.20312,0.1875 1.89062,0.5625 0.70313,0.375 1,0.875 0.29688,0.5 0.29688,1.09375 0,0.75 -0.4375,1.32813 -0.4375,0.5625 -1.21875,0.89062 -0.78125,0.3125 -1.78125,0.3125 z m 6.43652,-0.0781 q -0.28125,0 -0.45312,-0.17188 -0.15625,-0.17187 -0.15625,-0.45312 v -7.5 q 0,-0.29688 0.15625,-0.45313 0.17187,-0.17187 0.45312,-0.17187 0.28125,0 0.4375,0.17187 0.17188,0.15625 0.17188,0.45313 v 7.5 q 0,0.28125 -0.17188,0.45312 -0.15625,0.17188 -0.4375,0.17188 z m 0,-10.42188 q -0.35937,0 -0.625,-0.25 -0.25,-0.25 -0.25,-0.625 0,-0.40625 0.26563,-0.625 0.26562,-0.23437 0.625,-0.23437 0.32812,0 0.59375,0.23437 0.26562,0.21875 0.26562,0.625 0,0.375 -0.26562,0.625 -0.25,0.25 -0.60938,0.25 z m 7.7334,10.5 q -1.28125,0 -2.29687,-0.57812 -1,-0.57813 -1.57813,-1.57813 -0.57812,-1.01562 -0.57812,-2.29687 0,-1.28125 0.57812,-2.29688 0.57813,-1.01562 1.57813,-1.57812 1.01562,-0.57813 2.29687,-0.57813 1.28125,0 2.28125,0.57813 1,0.5625 1.57813,1.57812 0.57812,1.01563 0.59375,2.29688 0,1.28125 -0.59375,2.29687 -0.57813,1 -1.57813,1.57813 -1,0.57812 -2.28125,0.57812 z m 0,-1.125 q 0.9375,0 1.67188,-0.42187 0.73437,-0.4375 1.14062,-1.1875 0.42188,-0.75 0.42188,-1.71875 0,-0.95313 -0.42188,-1.70313 -0.40625,-0.76562 -1.14062,-1.20312 -0.73438,-0.4375 -1.67188,-0.4375 -0.92187,0 -1.65625,0.4375 -0.73437,0.4375 -1.17187,1.20312 -0.42188,0.75 -0.42188,1.70313 0,0.96875 0.42188,1.71875 0.4375,0.75 1.17187,1.1875 0.73438,0.42187 1.65625,0.42187 z m 14.3476,1.04688 q -0.26563,0 -0.45313,-0.17188 -0.17187,-0.1875 -0.17187,-0.4375 v -4.15625 q 0,-1 -0.375,-1.64062 -0.375,-0.64063 -1.03125,-0.95313 -0.64063,-0.32812 -1.45313,-0.32812 -0.78125,0 -1.42187,0.3125 -0.625,0.29687 -1,0.82812 -0.35938,0.53125 -0.35938,1.20313 h -0.875 q 0.0312,-1.01563 0.53125,-1.79688 0.51563,-0.79687 1.35938,-1.25 0.85937,-0.45312 1.89062,-0.45312 1.14063,0 2.03125,0.46875 0.90625,0.46875 1.42188,1.39062 0.51562,0.90625 0.51562,2.21875 v 4.15625 q 0,0.25 -0.17187,0.4375 -0.17188,0.17188 -0.4375,0.17188 z m -6.875,0 q -0.28125,0 -0.45313,-0.17188 -0.17187,-0.17187 -0.17187,-0.4375 v -7.51562 q 0,-0.29688 0.17187,-0.45313 0.17188,-0.17187 0.45313,-0.17187 0.28125,0 0.4375,0.17187 0.17187,0.15625 0.17187,0.45313 v 7.51562 q 0,0.26563 -0.17187,0.4375 -0.15625,0.17188 -0.4375,0.17188 z"
       fill-rule="nonzero"
       id="path13" />
    <path
       fill="#999999"
       d="m 578.66406,264.83728 h 137.3858 v 53.76376 h -137.3858 z"
       fill-rule="evenodd"
       id="path14" />
    <path
       fill="#ffffff"
       d="m 592.7865,287.79916 q -0.23437,0 -0.40625,-0.17188 -0.15625,-0.17187 -0.15625,-0.40625 v -10.29687 q 0,-0.25 0.15625,-0.40625 0.17188,-0.17188 0.40625,-0.17188 0.35938,0 0.51563,0.29688 l 4.9375,9.82812 h -0.5 l 4.85937,-9.82812 q 0.17188,-0.29688 0.51563,-0.29688 0.23437,0 0.39062,0.17188 0.15625,0.15625 0.15625,0.40625 v 10.29687 q 0,0.23438 -0.15625,0.40625 -0.15625,0.17188 -0.39062,0.17188 -0.25,0 -0.42188,-0.17188 -0.17187,-0.17187 -0.17187,-0.40625 v -8.8125 l 0.25,0.0156 -4.32813,8.82812 q -0.15625,0.28125 -0.48437,0.28125 -0.375,0 -0.53125,-0.34375 l -4.35938,-8.71875 0.29688,-0.0625 v 8.8125 q 0,0.23438 -0.17188,0.40625 -0.17187,0.17188 -0.40625,0.17188 z m 18.95593,0.14062 q -1.1875,0 -2.21875,-0.45312 -1.03125,-0.45313 -1.82812,-1.26563 -0.78125,-0.8125 -1.21875,-1.875 -0.4375,-1.0625 -0.4375,-2.28125 0,-1.20312 0.42187,-2.26562 0.4375,-1.0625 1.21875,-1.85938 0.79688,-0.8125 1.82813,-1.26562 1.03125,-0.46875 2.23437,-0.46875 1.0625,0 1.92188,0.3125 0.85937,0.29687 1.67187,0.98437 0.125,0.0937 0.14063,0.23438 0.0312,0.14062 -0.0312,0.26562 -0.0469,0.125 -0.17188,0.1875 -0.0312,0.10938 -0.15625,0.17188 -0.10937,0.0625 -0.26562,0.0469 -0.14063,-0.0156 -0.29688,-0.14062 -0.5625,-0.5 -1.25,-0.73438 -0.67187,-0.25 -1.5625,-0.25 -0.95312,0 -1.78125,0.39063 -0.82812,0.375 -1.46875,1.04687 -0.625,0.65625 -0.98437,1.51563 -0.35938,0.85937 -0.35938,1.82812 0,1 0.35938,1.875 0.35937,0.85938 0.98437,1.51563 0.64063,0.65625 1.46875,1.03125 0.82813,0.375 1.78125,0.375 0.8125,0 1.53125,-0.26563 0.71875,-0.26562 1.35938,-0.76562 0.17187,-0.14063 0.35937,-0.10938 0.20313,0.0312 0.34375,0.17188 0.15625,0.14062 0.15625,0.375 0,0.125 -0.0469,0.21875 -0.0312,0.0937 -0.10938,0.20312 -0.75,0.6875 -1.67187,0.96875 -0.92188,0.28125 -1.92188,0.28125 z m 6.67792,-0.14062 q -0.25,0 -0.40625,-0.15625 -0.15625,-0.17188 -0.15625,-0.42188 v -10.29687 q 0,-0.25 0.15625,-0.40625 0.15625,-0.17188 0.40625,-0.17188 h 2.9375 q 1.07813,0 1.90625,0.48438 0.84375,0.46875 1.3125,1.3125 0.46875,0.82812 0.46875,1.9375 0,1.0625 -0.46875,1.89062 -0.46875,0.82813 -1.3125,1.3125 -0.82812,0.46875 -1.90625,0.46875 h -2.35937 v 3.46875 q 0,0.25 -0.17188,0.42188 -0.15625,0.15625 -0.40625,0.15625 z m 0.57813,-5.14063 h 2.35937 q 0.75,0 1.32813,-0.32812 0.59375,-0.32813 0.92187,-0.90625 0.32813,-0.59375 0.32813,-1.34375 0,-0.78125 -0.32813,-1.35938 -0.32812,-0.59375 -0.92187,-0.92187 -0.57813,-0.34375 -1.32813,-0.34375 h -2.35937 z m 15.45147,5.14063 q -0.23437,0 -0.40625,-0.17188 -0.17187,-0.17187 -0.17187,-0.40625 v -10.875 h 1.14062 v 10.875 q 0,0.23438 -0.15625,0.40625 -0.15625,0.17188 -0.40625,0.17188 z m -4.04687,-10.40625 q -0.23438,0 -0.39063,-0.14063 -0.14062,-0.15625 -0.14062,-0.375 0,-0.23437 0.14062,-0.375 0.15625,-0.15625 0.39063,-0.15625 h 8.10937 q 0.23438,0 0.375,0.15625 0.14063,0.14063 0.14063,0.375 0,0.21875 -0.14063,0.375 -0.14062,0.14063 -0.375,0.14063 z m 8.57782,5.46875 q 0.0469,-0.90625 0.48437,-1.625 0.4375,-0.71875 1.125,-1.125 0.70313,-0.42188 1.54688,-0.42188 0.67187,0 1.03125,0.20313 0.375,0.1875 0.29687,0.54687 -0.0625,0.21875 -0.20312,0.29688 -0.14063,0.0781 -0.34375,0.0625 -0.1875,-0.0156 -0.4375,-0.0312 -0.82813,-0.0781 -1.46875,0.17187 -0.625,0.23438 -1,0.73438 -0.375,0.5 -0.375,1.1875 z m 0.0937,4.9375 q -0.26563,0 -0.42188,-0.14063 -0.14062,-0.15625 -0.14062,-0.42187 v -6.89063 q 0,-0.26562 0.14062,-0.40625 0.15625,-0.15625 0.42188,-0.15625 0.26562,0 0.40625,0.15625 0.15625,0.14063 0.15625,0.40625 v 6.89063 q 0,0.26562 -0.15625,0.42187 -0.14063,0.14063 -0.40625,0.14063 z m 9.09466,0.0781 q -1.125,0 -2.01562,-0.53125 -0.89063,-0.54687 -1.42188,-1.46875 -0.51562,-0.92187 -0.51562,-2.07812 0,-1.17188 0.53125,-2.09375 0.54687,-0.92188 1.46875,-1.45313 0.92187,-0.54687 2.07812,-0.54687 1.15625,0 2.0625,0.54687 0.92188,0.53125 1.45313,1.45313 0.54687,0.92187 0.5625,2.09375 l -0.45313,0.34375 q 0,1.0625 -0.5,1.90625 -0.48437,0.84375 -1.32812,1.34375 -0.84375,0.48437 -1.92188,0.48437 z m 0.125,-1.03125 q 0.84375,0 1.51563,-0.39062 0.67187,-0.40625 1.04687,-1.09375 0.39063,-0.70313 0.39063,-1.5625 0,-0.875 -0.39063,-1.5625 -0.375,-0.70313 -1.04687,-1.09375 -0.67188,-0.40625 -1.51563,-0.40625 -0.82812,0 -1.51562,0.40625 -0.67188,0.39062 -1.0625,1.09375 -0.39063,0.6875 -0.39063,1.5625 0,0.85937 0.39063,1.5625 0.39062,0.6875 1.0625,1.09375 0.6875,0.39062 1.51562,0.39062 z m 3.5,0.95313 q -0.25,0 -0.40625,-0.15625 -0.15625,-0.15625 -0.15625,-0.40625 v -2.5 l 0.26563,-1.15625 0.875,0.21875 v 3.4375 q 0,0.25 -0.17188,0.40625 -0.15625,0.15625 -0.40625,0.15625 z m 9.64106,0 q -0.25,0 -0.40625,-0.15625 -0.15625,-0.17188 -0.15625,-0.40625 v -3.8125 q 0,-0.90625 -0.34375,-1.48438 -0.34375,-0.59375 -0.9375,-0.875 -0.59375,-0.29687 -1.34375,-0.29687 -0.71875,0 -1.29688,0.28125 -0.57812,0.26562 -0.92187,0.75 -0.32813,0.48437 -0.32813,1.10937 h -0.8125 q 0.0312,-0.92187 0.5,-1.64062 0.46875,-0.73438 1.23438,-1.15625 0.78125,-0.42188 1.73437,-0.42188 1.04688,0 1.85938,0.4375 0.82812,0.4375 1.29687,1.28125 0.48438,0.82813 0.48438,2.01563 v 3.8125 q 0,0.23437 -0.17188,0.40625 -0.15625,0.15625 -0.39062,0.15625 z m -6.29688,0 q -0.26562,0 -0.42187,-0.15625 -0.15625,-0.15625 -0.15625,-0.40625 v -6.89063 q 0,-0.25 0.15625,-0.40625 0.15625,-0.15625 0.42187,-0.15625 0.25,0 0.40625,0.15625 0.15625,0.15625 0.15625,0.40625 v 6.89063 q 0,0.25 -0.15625,0.40625 -0.15625,0.15625 -0.40625,0.15625 z m 12.15668,0.0781 q -0.875,0 -1.73438,-0.29687 -0.84375,-0.29688 -1.35937,-0.875 -0.17188,-0.1875 -0.14063,-0.40625 0.0312,-0.21875 0.21875,-0.375 0.20313,-0.14063 0.42188,-0.10938 0.23437,0.0156 0.375,0.1875 0.34375,0.40625 0.92187,0.625 0.59375,0.21875 1.29688,0.21875 1.07812,0 1.5625,-0.375 0.48437,-0.375 0.5,-0.90625 0,-0.51562 -0.5,-0.85937 -0.5,-0.34375 -1.64063,-0.54688 -1.48437,-0.23437 -2.17187,-0.8125 -0.6875,-0.59375 -0.6875,-1.39062 0,-0.75 0.39062,-1.25 0.40625,-0.5 1.0625,-0.75 0.65625,-0.25 1.45313,-0.25 0.98437,0 1.6875,0.34375 0.71875,0.32812 1.15625,0.90625 0.14062,0.1875 0.10937,0.39062 -0.0312,0.20313 -0.23437,0.34375 -0.17188,0.0937 -0.40625,0.0625 -0.21875,-0.0312 -0.375,-0.21875 -0.375,-0.42187 -0.85938,-0.60937 -0.48437,-0.20313 -1.10937,-0.20313 -0.8125,0 -1.29688,0.32813 -0.48437,0.32812 -0.48437,0.82812 0,0.34375 0.1875,0.59375 0.1875,0.25 0.625,0.4375 0.45312,0.1875 1.26562,0.3125 1.09375,0.1875 1.73438,0.53125 0.64062,0.34375 0.90625,0.8125 0.26562,0.45313 0.26562,0.98438 0,0.70312 -0.40625,1.21875 -0.39062,0.51562 -1.10937,0.8125 -0.70313,0.29687 -1.625,0.29687 z m 5.6654,3.34375 q -0.26562,0 -0.42187,-0.15625 -0.15625,-0.14062 -0.15625,-0.40625 v -6.92187 q 0.0156,-1.14063 0.54687,-2.04688 0.54688,-0.92187 1.45313,-1.45312 0.92187,-0.53125 2.0625,-0.53125 1.17187,0 2.09375,0.54687 0.92187,0.53125 1.45312,1.45313 0.54688,0.92187 0.54688,2.09375 0,1.15625 -0.53125,2.07812 -0.51563,0.92188 -1.40625,1.46875 -0.89063,0.53125 -2.01563,0.53125 -0.98437,0 -1.78125,-0.42187 -0.79687,-0.42188 -1.28125,-1.10938 v 4.3125 q 0,0.26563 -0.15625,0.40625 -0.15625,0.15625 -0.40625,0.15625 z m 3.48438,-4.375 q 0.85937,0 1.53125,-0.39062 0.67187,-0.40625 1.0625,-1.09375 0.39062,-0.70313 0.39062,-1.5625 0,-0.875 -0.39062,-1.5625 -0.39063,-0.70313 -1.0625,-1.09375 -0.67188,-0.40625 -1.53125,-0.40625 -0.82813,0 -1.51563,0.40625 -0.67187,0.39062 -1.04687,1.09375 -0.375,0.6875 -0.375,1.5625 0,0.85937 0.375,1.5625 0.375,0.6875 1.04687,1.09375 0.6875,0.39062 1.51563,0.39062 z m 9.95575,1.03125 q -1.17188,0 -2.09375,-0.53125 -0.92188,-0.53125 -1.45313,-1.45312 -0.53125,-0.92188 -0.53125,-2.09375 0,-1.1875 0.53125,-2.10938 0.53125,-0.92187 1.45313,-1.45312 0.92187,-0.53125 2.09375,-0.53125 1.17187,0 2.07812,0.53125 0.92188,0.53125 1.45313,1.45312 0.53125,0.92188 0.54687,2.10938 0,1.17187 -0.54687,2.09375 -0.53125,0.92187 -1.45313,1.45312 -0.90625,0.53125 -2.07812,0.53125 z m 0,-1.03125 q 0.84375,0 1.51562,-0.39062 0.6875,-0.40625 1.0625,-1.09375 0.375,-0.6875 0.375,-1.5625 0,-0.875 -0.375,-1.5625 -0.375,-0.70313 -1.0625,-1.09375 -0.67187,-0.40625 -1.51562,-0.40625 -0.84375,0 -1.53125,0.40625 -0.67188,0.39062 -1.0625,1.09375 -0.375,0.6875 -0.375,1.5625 0,0.875 0.375,1.5625 0.39062,0.6875 1.0625,1.09375 0.6875,0.39062 1.53125,0.39062 z m 6.7348,-3.98437 q 0.0469,-0.90625 0.48437,-1.625 0.4375,-0.71875 1.125,-1.125 0.70313,-0.42188 1.54688,-0.42188 0.67187,0 1.03125,0.20313 0.375,0.1875 0.29687,0.54687 -0.0625,0.21875 -0.20312,0.29688 -0.14063,0.0781 -0.34375,0.0625 -0.1875,-0.0156 -0.4375,-0.0312 -0.82813,-0.0781 -1.46875,0.17187 -0.625,0.23438 -1,0.73438 -0.375,0.5 -0.375,1.1875 z m 0.0937,4.9375 q -0.26563,0 -0.42188,-0.14063 -0.14062,-0.15625 -0.14062,-0.42187 v -6.89063 q 0,-0.26562 0.14062,-0.40625 0.15625,-0.15625 0.42188,-0.15625 0.26562,0 0.40625,0.15625 0.15625,0.14063 0.15625,0.40625 v 6.89063 q 0,0.26562 -0.15625,0.42187 -0.14063,0.14063 -0.40625,0.14063 z m 9.29071,0 q -0.78125,0 -1.39063,-0.35938 -0.59375,-0.375 -0.95312,-1.01562 -0.34375,-0.64063 -0.34375,-1.45313 v -7.17187 q 0,-0.25 0.14062,-0.40625 0.15625,-0.15625 0.40625,-0.15625 0.25,0 0.40625,0.15625 0.17188,0.15625 0.17188,0.40625 v 7.17187 q 0,0.75 0.4375,1.23438 0.4375,0.46875 1.125,0.46875 h 0.39062 q 0.23438,0 0.375,0.15625 0.15625,0.15625 0.15625,0.40625 0,0.25 -0.17187,0.40625 -0.17188,0.15625 -0.4375,0.15625 z m -3.64063,-6.73438 q -0.21875,0 -0.375,-0.14062 -0.14062,-0.14063 -0.14062,-0.34375 0,-0.23438 0.14062,-0.35938 0.15625,-0.14062 0.375,-0.14062 h 3.73438 q 0.21875,0 0.35937,0.14062 0.15625,0.125 0.15625,0.35938 0,0.20312 -0.15625,0.34375 -0.14062,0.14062 -0.35937,0.14062 z"
       fill-rule="nonzero"
       id="path15" />
    <path
       fill="#ffffff"
       d="m 622.1676,309.22104 q -0.17188,0 -0.3125,-0.0937 -0.125,-0.0781 -0.23438,-0.28125 -0.85937,-1.76562 -1.28125,-3.53125 -0.42187,-1.76562 -0.42187,-3.54687 0,-1.76563 0.42187,-3.53125 0.42188,-1.76563 1.28125,-3.51563 0.1875,-0.39062 0.54688,-0.39062 0.23437,0 0.39062,0.17187 0.17188,0.15625 0.17188,0.39063 0,0.17187 -0.0937,0.32812 -1.60938,3.26563 -1.60938,6.5625 0,1.64063 0.40625,3.29688 0.42188,1.65625 1.21875,3.28125 0.0937,0.17187 0.0937,0.3125 0,0.23437 -0.17187,0.39062 -0.15625,0.15625 -0.40625,0.15625 z m 5.70514,-3.28125 q -0.9375,0 -1.73438,-0.26562 -0.79687,-0.26563 -1.39062,-0.76563 -0.57813,-0.5 -0.89063,-1.15625 -0.125,-0.23437 -0.0156,-0.4375 0.10937,-0.20312 0.375,-0.26562 0.20312,-0.0625 0.40625,0.0469 0.20312,0.0937 0.29687,0.29688 0.21875,0.42187 0.64063,0.76562 0.4375,0.34375 1.01562,0.53125 0.59375,0.17188 1.29688,0.17188 0.78125,0 1.375,-0.25 0.60937,-0.26563 0.95312,-0.75 0.34375,-0.5 0.34375,-1.20313 0,-0.89062 -0.67187,-1.53125 -0.65625,-0.64062 -2.0625,-0.82812 -1.71875,-0.20313 -2.6875,-1.0625 -0.95313,-0.85938 -0.95313,-2.09375 0,-0.90625 0.46875,-1.5625 0.48438,-0.65625 1.3125,-1.01563 0.84375,-0.35937 1.92188,-0.35937 0.8125,0 1.46875,0.26562 0.65625,0.25 1.14062,0.67188 0.5,0.40625 0.79688,0.90625 0.15625,0.23437 0.0937,0.45312 -0.0469,0.21875 -0.25,0.34375 -0.21875,0.0937 -0.45313,0.0312 -0.21875,-0.0781 -0.32812,-0.28125 -0.23438,-0.34375 -0.5625,-0.64062 -0.32813,-0.29688 -0.79688,-0.46875 -0.46875,-0.1875 -1.125,-0.20313 -1.15625,0 -1.85937,0.5 -0.70313,0.48438 -0.70313,1.42188 0,0.5 0.26563,0.92187 0.26562,0.42188 0.85937,0.71875 0.60938,0.29688 1.64063,0.45313 1.82812,0.25 2.71875,1.10937 0.89062,0.85938 0.89062,2.23438 0,0.79687 -0.29687,1.42187 -0.28125,0.60938 -0.79688,1.03125 -0.51562,0.40625 -1.21875,0.625 -0.6875,0.21875 -1.48437,0.21875 z m 9.6712,-0.0625 q -1.1875,0 -2.10937,-0.51562 -0.90625,-0.53125 -1.4375,-1.45313 -0.51563,-0.92187 -0.51563,-2.10937 0,-1.20313 0.48438,-2.10938 0.5,-0.92187 1.35937,-1.45312 0.875,-0.53125 2,-0.53125 1.10938,0 1.9375,0.51562 0.82813,0.5 1.28125,1.39063 0.45313,0.89062 0.45313,2.04687 0,0.23438 -0.14063,0.375 -0.14062,0.125 -0.375,0.125 h -6.23437 v -0.9375 h 6.34375 l -0.625,0.45313 q 0.0156,-0.84375 -0.3125,-1.51563 -0.32813,-0.67187 -0.92188,-1.04687 -0.57812,-0.39063 -1.40625,-0.39063 -0.82812,0 -1.46875,0.40625 -0.625,0.39063 -0.96875,1.09375 -0.34375,0.6875 -0.34375,1.57813 0,0.89062 0.375,1.57812 0.39063,0.6875 1.0625,1.09375 0.6875,0.39063 1.5625,0.39063 0.53125,0 1.0625,-0.17188 0.53125,-0.1875 0.85938,-0.46875 0.15625,-0.14062 0.35937,-0.14062 0.21875,-0.0156 0.35938,0.10937 0.1875,0.17188 0.1875,0.375 0.0156,0.20313 -0.15625,0.35938 -0.48438,0.40625 -1.23438,0.6875 -0.75,0.26562 -1.4375,0.26562 z m 5.82709,-5.01562 q 0.0469,-0.90625 0.48438,-1.625 0.4375,-0.71875 1.125,-1.125 0.70312,-0.42188 1.54687,-0.42188 0.67188,0 1.03125,0.20313 0.375,0.1875 0.29688,0.54687 -0.0625,0.21875 -0.20313,0.29688 -0.14062,0.0781 -0.34375,0.0625 -0.1875,-0.0156 -0.4375,-0.0312 -0.82812,-0.0781 -1.46875,0.17187 -0.625,0.23438 -1,0.73438 -0.375,0.5 -0.375,1.1875 z m 0.0937,4.9375 q -0.26562,0 -0.42187,-0.14063 -0.14063,-0.15625 -0.14063,-0.42187 v -6.89063 q 0,-0.26562 0.14063,-0.40625 0.15625,-0.15625 0.42187,-0.15625 0.26563,0 0.40625,0.15625 0.15625,0.14063 0.15625,0.40625 v 6.89063 q 0,0.26562 -0.15625,0.42187 -0.14062,0.14063 -0.40625,0.14063 z m 8.90009,0 q -0.35938,0 -0.53125,-0.375 l -3.25,-6.90625 q -0.0937,-0.1875 -0.0156,-0.375 0.0781,-0.20313 0.29688,-0.29688 0.20312,-0.10937 0.39062,-0.0312 0.1875,0.0625 0.29688,0.26563 l 3.125,6.75 h -0.60938 l 3.07813,-6.75 q 0.0937,-0.20313 0.29687,-0.26563 0.21875,-0.0781 0.42188,0.0156 0.20312,0.0937 0.28125,0.29687 0.0781,0.20313 -0.0156,0.375 l -3.21875,6.92188 q -0.17187,0.375 -0.54687,0.375 z m 8.70227,0.0781 q -1.1875,0 -2.10938,-0.51562 -0.90625,-0.53125 -1.4375,-1.45313 -0.51562,-0.92187 -0.51562,-2.10937 0,-1.20313 0.48437,-2.10938 0.5,-0.92187 1.35938,-1.45312 0.875,-0.53125 2,-0.53125 1.10937,0 1.9375,0.51562 0.82812,0.5 1.28125,1.39063 0.45312,0.89062 0.45312,2.04687 0,0.23438 -0.14062,0.375 -0.14063,0.125 -0.375,0.125 h -6.23438 v -0.9375 h 6.34375 l -0.625,0.45313 q 0.0156,-0.84375 -0.3125,-1.51563 -0.32812,-0.67187 -0.92187,-1.04687 -0.57813,-0.39063 -1.40625,-0.39063 -0.82813,0 -1.46875,0.40625 -0.625,0.39063 -0.96875,1.09375 -0.34375,0.6875 -0.34375,1.57813 0,0.89062 0.375,1.57812 0.39062,0.6875 1.0625,1.09375 0.6875,0.39063 1.5625,0.39063 0.53125,0 1.0625,-0.17188 0.53125,-0.1875 0.85937,-0.46875 0.15625,-0.14062 0.35938,-0.14062 0.21875,-0.0156 0.35937,0.10937 0.1875,0.17188 0.1875,0.375 0.0156,0.20313 -0.15625,0.35938 -0.48437,0.40625 -1.23437,0.6875 -0.75,0.26562 -1.4375,0.26562 z m 5.82708,-5.01562 q 0.0469,-0.90625 0.48438,-1.625 0.4375,-0.71875 1.125,-1.125 0.70312,-0.42188 1.54687,-0.42188 0.67188,0 1.03125,0.20313 0.375,0.1875 0.29688,0.54687 -0.0625,0.21875 -0.20313,0.29688 -0.14062,0.0781 -0.34375,0.0625 -0.1875,-0.0156 -0.4375,-0.0312 -0.82812,-0.0781 -1.46875,0.17187 -0.625,0.23438 -1,0.73438 -0.375,0.5 -0.375,1.1875 z m 0.0937,4.9375 q -0.26562,0 -0.42187,-0.14063 -0.14063,-0.15625 -0.14063,-0.42187 v -6.89063 q 0,-0.26562 0.14063,-0.40625 0.15625,-0.15625 0.42187,-0.15625 0.26563,0 0.40625,0.15625 0.15625,0.14063 0.15625,0.40625 v 6.89063 q 0,0.26562 -0.15625,0.42187 -0.14062,0.14063 -0.40625,0.14063 z m 5.55634,3.42187 q -0.23438,0 -0.40625,-0.15625 -0.15625,-0.15625 -0.15625,-0.39062 0,-0.14063 0.0781,-0.3125 0.8125,-1.625 1.21875,-3.28125 0.42188,-1.65625 0.42188,-3.29688 0,-3.29687 -1.625,-6.5625 -0.0781,-0.15625 -0.0937,-0.32812 0,-0.23438 0.17187,-0.39063 0.17188,-0.17187 0.39063,-0.17187 0.375,0 0.5625,0.39062 0.85937,1.75 1.28125,3.51563 0.42187,1.76562 0.42187,3.53125 0,1.78125 -0.4375,3.54687 -0.42187,1.76563 -1.26562,3.53125 -0.125,0.20313 -0.25,0.28125 -0.125,0.0937 -0.3125,0.0937 z"
       fill-rule="nonzero"
       id="path16" />
    <path
       fill="#ffffff"
       d="m 320.1601,187.61154 h 190.26773 v 151.3386 H 320.1601 Z"
       fill-rule="evenodd"
       id="path17" />
    <path
       stroke="#666666"
       stroke-width="1"
       stroke-linejoin="round"
       stroke-linecap="butt"
       d="m 320.1601,187.61154 h 190.26773 v 151.3386 H 320.1601 Z"
       fill-rule="evenodd"
       id="path18" />
    <path
       fill="#666666"
       d="m 364.848,214.53154 q -0.29687,0 -0.51562,-0.20313 -0.21875,-0.21875 -0.21875,-0.53125 v -13.10937 q 0,-0.3125 0.21875,-0.51563 0.21875,-0.21875 0.51562,-0.21875 0.45313,0 0.65625,0.375 l 6.28125,12.5 h -0.625 l 6.17188,-12.5 q 0.21875,-0.375 0.65625,-0.375 0.29687,0 0.5,0.21875 0.20312,0.20313 0.20312,0.51563 v 13.10937 q 0,0.3125 -0.20312,0.53125 -0.20313,0.20313 -0.5,0.20313 -0.32813,0 -0.54688,-0.20313 -0.20312,-0.21875 -0.20312,-0.53125 v -11.21875 l 0.3125,0.0156 -5.5,11.25 q -0.20313,0.35937 -0.64063,0.35937 -0.46875,0 -0.67187,-0.45312 l -5.53125,-11.07813 0.375,-0.0937 v 11.21875 q 0,0.3125 -0.21875,0.53125 -0.21875,0.20313 -0.51563,0.20313 z m 24.11429,0.1875 q -1.5,0 -2.82813,-0.57813 -1.3125,-0.57812 -2.3125,-1.60937 -0.98437,-1.04688 -1.54687,-2.39063 -0.5625,-1.35937 -0.5625,-2.90625 0,-1.53125 0.54687,-2.875 0.54688,-1.35937 1.54688,-2.375 1,-1.03125 2.3125,-1.60937 1.32812,-0.59375 2.84375,-0.59375 1.34375,0 2.4375,0.39062 1.10937,0.39063 2.14062,1.25 0.17188,0.125 0.1875,0.3125 0.0312,0.17188 -0.0469,0.32813 -0.0625,0.15625 -0.21875,0.23437 -0.0312,0.14063 -0.1875,0.21875 -0.14063,0.0781 -0.34375,0.0625 -0.1875,-0.0312 -0.375,-0.17187 -0.73438,-0.64063 -1.59375,-0.9375 -0.85938,-0.3125 -2,-0.3125 -1.20313,0 -2.26563,0.48437 -1.04687,0.48438 -1.85937,1.32813 -0.79688,0.82812 -1.25,1.9375 -0.45313,1.09375 -0.45313,2.32812 0,1.26563 0.45313,2.375 0.45312,1.09375 1.25,1.9375 0.8125,0.84375 1.85937,1.32813 1.0625,0.46875 2.26563,0.46875 1.03125,0 1.9375,-0.32813 0.92187,-0.34375 1.75,-0.98437 0.21875,-0.1875 0.46875,-0.14063 0.25,0.0312 0.4375,0.21875 0.1875,0.1875 0.1875,0.48438 0,0.14062 -0.0469,0.26562 -0.0469,0.125 -0.15625,0.25 -0.95312,0.875 -2.125,1.25 -1.17187,0.35938 -2.45312,0.35938 z m 8.5155,-0.1875 q -0.3125,0 -0.53125,-0.20313 -0.20312,-0.20312 -0.20312,-0.53125 v -13.10937 q 0,-0.3125 0.20312,-0.51563 0.21875,-0.21875 0.53125,-0.21875 h 3.73438 q 1.375,0 2.4375,0.60938 1.0625,0.60937 1.65625,1.67187 0.60937,1.0625 0.60937,2.46875 0,1.35938 -0.60937,2.42188 -0.59375,1.04687 -1.65625,1.65625 -1.0625,0.59375 -2.4375,0.59375 h -3 v 4.42187 q 0,0.32813 -0.21875,0.53125 -0.20313,0.20313 -0.51563,0.20313 z m 0.73438,-6.54688 h 3 q 0.95312,0 1.6875,-0.42187 0.75,-0.42188 1.17187,-1.15625 0.42188,-0.75 0.42188,-1.70313 0,-1 -0.42188,-1.73437 -0.42187,-0.75 -1.17187,-1.17188 -0.73438,-0.4375 -1.6875,-0.4375 h -3 z m 21.96203,6.73438 q -1.5,0 -2.82812,-0.57813 -1.3125,-0.57812 -2.3125,-1.60937 -0.98438,-1.04688 -1.54688,-2.39063 -0.5625,-1.35937 -0.5625,-2.90625 0,-1.53125 0.54688,-2.875 0.54687,-1.35937 1.54687,-2.375 1,-1.03125 2.3125,-1.60937 1.32813,-0.59375 2.84375,-0.59375 1.34375,0 2.4375,0.39062 1.10938,0.39063 2.14063,1.25 0.17187,0.125 0.1875,0.3125 0.0312,0.17188 -0.0469,0.32813 -0.0625,0.15625 -0.21875,0.23437 -0.0312,0.14063 -0.1875,0.21875 -0.14062,0.0781 -0.34375,0.0625 -0.1875,-0.0312 -0.375,-0.17187 -0.73437,-0.64063 -1.59375,-0.9375 -0.85937,-0.3125 -2,-0.3125 -1.20312,0 -2.26562,0.48437 -1.04688,0.48438 -1.85938,1.32813 -0.79687,0.82812 -1.25,1.9375 -0.45312,1.09375 -0.45312,2.32812 0,1.26563 0.45312,2.375 0.45313,1.09375 1.25,1.9375 0.8125,0.84375 1.85938,1.32813 1.0625,0.46875 2.26562,0.46875 1.03125,0 1.9375,-0.32813 0.92188,-0.34375 1.75,-0.98437 0.21875,-0.1875 0.46875,-0.14063 0.25,0.0312 0.4375,0.21875 0.1875,0.1875 0.1875,0.48438 0,0.14062 -0.0469,0.26562 -0.0469,0.125 -0.15625,0.25 -0.95313,0.875 -2.125,1.25 -1.17188,0.35938 -2.45313,0.35938 z m 9.79676,-0.1875 q -0.73438,0 -1.32813,-0.40625 -0.59375,-0.42188 -0.92187,-1.14063 -0.3125,-0.73437 -0.3125,-1.6875 v -10.625 q 0,-0.3125 0.1875,-0.51562 0.20312,-0.20313 0.51562,-0.20313 0.3125,0 0.5,0.20313 0.20313,0.20312 0.20313,0.51562 v 10.625 q 0,0.8125 0.32812,1.3125 0.32813,0.5 0.82813,0.5 h 0.46875 q 0.28125,0 0.45312,0.20313 0.17188,0.1875 0.17188,0.51562 0,0.3125 -0.23438,0.51563 -0.23437,0.1875 -0.60937,0.1875 z m 4.08917,0 q -0.32813,0 -0.53125,-0.1875 -0.1875,-0.20313 -0.1875,-0.54688 v -8.75 q 0,-0.32812 0.1875,-0.51562 0.20312,-0.20313 0.53125,-0.20313 0.3125,0 0.51562,0.20313 0.20313,0.1875 0.20313,0.51562 v 8.75 q 0,0.34375 -0.20313,0.54688 -0.20312,0.1875 -0.51562,0.1875 z m -0.0156,-12.14063 q -0.42187,0 -0.71875,-0.29687 -0.29687,-0.3125 -0.29687,-0.73438 0,-0.46875 0.3125,-0.73437 0.3125,-0.26563 0.71875,-0.26563 0.39062,0 0.6875,0.26563 0.3125,0.26562 0.3125,0.73437 0,0.42188 -0.29688,0.73438 -0.29687,0.29687 -0.71875,0.29687 z m 9.01667,12.23438 q -1.51563,0 -2.6875,-0.65625 -1.15625,-0.67188 -1.82813,-1.84375 -0.65625,-1.17188 -0.65625,-2.6875 0,-1.53125 0.625,-2.6875 0.625,-1.17188 1.71875,-1.84375 1.10938,-0.67188 2.54688,-0.67188 1.40625,0 2.45312,0.64063 1.0625,0.64062 1.64063,1.78125 0.57812,1.14062 0.57812,2.59375 0,0.29687 -0.1875,0.48437 -0.1875,0.17188 -0.48437,0.17188 h -7.92188 v -1.20313 h 8.07813 l -0.79688,0.57813 q 0.0156,-1.07813 -0.40625,-1.9375 -0.40625,-0.85938 -1.15625,-1.34375 -0.75,-0.48438 -1.79687,-0.48438 -1.0625,0 -1.875,0.51563 -0.79688,0.5 -1.23438,1.39062 -0.4375,0.875 -0.4375,2.01563 0,1.14062 0.48438,2.01562 0.5,0.875 1.35937,1.39063 0.85938,0.5 1.98438,0.5 0.67187,0 1.34375,-0.23438 0.6875,-0.23437 1.09375,-0.59375 0.20312,-0.17187 0.46875,-0.17187 0.26562,-0.0156 0.4375,0.14062 0.25,0.21875 0.25,0.48438 0.0156,0.25 -0.20313,0.4375 -0.625,0.53125 -1.57812,0.875 -0.9375,0.34375 -1.8125,0.34375 z m 15.5643,-0.0937 q -0.3125,0 -0.51563,-0.20313 -0.20312,-0.20312 -0.20312,-0.5 v -4.85937 q 0,-1.15625 -0.4375,-1.89063 -0.4375,-0.75 -1.20313,-1.125 -0.75,-0.375 -1.70312,-0.375 -0.90625,0 -1.65625,0.35938 -0.73438,0.34375 -1.17188,0.96875 -0.42187,0.60937 -0.42187,1.39062 h -1.01563 q 0.0312,-1.17187 0.625,-2.09375 0.60938,-0.92187 1.59375,-1.45312 0.98438,-0.53125 2.20313,-0.53125 1.3125,0 2.35937,0.54687 1.04688,0.54688 1.65625,1.60938 0.60938,1.0625 0.60938,2.59375 v 4.85937 q 0,0.29688 -0.20313,0.5 -0.20312,0.20313 -0.51562,0.20313 z m -8.01563,0 q -0.32812,0 -0.53125,-0.1875 -0.20312,-0.20313 -0.20312,-0.51563 v -8.78125 q 0,-0.32812 0.20312,-0.51562 0.20313,-0.20313 0.53125,-0.20313 0.3125,0 0.5,0.20313 0.20313,0.1875 0.20313,0.51562 v 8.78125 q 0,0.3125 -0.20313,0.51563 -0.1875,0.1875 -0.5,0.1875 z m 15.89591,0 q -0.98438,0 -1.76563,-0.46875 -0.76562,-0.46875 -1.21875,-1.28125 -0.45312,-0.8125 -0.45312,-1.84375 v -9.125 q 0,-0.32813 0.1875,-0.53125 0.20312,-0.20313 0.53125,-0.20313 0.3125,0 0.51562,0.20313 0.20313,0.20312 0.20313,0.53125 v 9.125 q 0,0.9375 0.5625,1.54687 0.5625,0.60938 1.4375,0.60938 h 0.5 q 0.29687,0 0.48437,0.20312 0.1875,0.20313 0.1875,0.53125 0,0.3125 -0.21875,0.51563 -0.21875,0.1875 -0.5625,0.1875 z m -4.64063,-8.57813 q -0.28125,0 -0.46875,-0.17187 -0.1875,-0.1875 -0.1875,-0.45313 0,-0.28125 0.1875,-0.45312 0.1875,-0.17188 0.46875,-0.17188 h 4.75 q 0.28125,0 0.46875,0.17188 0.1875,0.17187 0.1875,0.45312 0,0.26563 -0.1875,0.45313 -0.1875,0.17187 -0.46875,0.17187 z"
       fill-rule="nonzero"
       id="path19" />
    <path
       fill="#ffffff"
       d="m 334.3176,227.44882 h 161.95276 v 99.87402 H 334.3176 Z"
       fill-rule="evenodd"
       id="path20" />
    <path
       stroke="#666666"
       stroke-width="1"
       stroke-linejoin="round"
       stroke-linecap="butt"
       d="m 334.3176,227.44882 h 161.95276 v 99.87402 H 334.3176 Z"
       fill-rule="evenodd"
       id="path21" />
    <path
       fill="#666666"
       d="m 364.3046,251.80882 q -0.25,0 -0.4375,-0.1875 -0.1875,-0.1875 -0.1875,-0.4375 v -11.25 q 0,-0.26563 0.1875,-0.4375 0.1875,-0.1875 0.4375,-0.1875 0.39062,0 0.5625,0.32812 l 5.39062,10.71875 h -0.54687 l 5.29687,-10.71875 q 0.20313,-0.32812 0.5625,-0.32812 0.26563,0 0.4375,0.1875 0.17188,0.17187 0.17188,0.4375 v 11.25 q 0,0.25 -0.17188,0.4375 -0.17187,0.1875 -0.4375,0.1875 -0.26562,0 -0.45312,-0.1875 -0.1875,-0.1875 -0.1875,-0.4375 v -9.625 l 0.28125,0.0156 -4.71875,9.64063 q -0.1875,0.3125 -0.54688,0.3125 -0.40625,0 -0.57812,-0.39063 l -4.75,-9.5 0.3125,-0.0781 v 9.625 q 0,0.25 -0.1875,0.4375 -0.17188,0.1875 -0.4375,0.1875 z m 20.69605,0.15625 q -1.29688,0 -2.4375,-0.48438 -1.125,-0.5 -1.98438,-1.39062 -0.84375,-0.89063 -1.32812,-2.04688 -0.48438,-1.15625 -0.48438,-2.48437 0,-1.3125 0.46875,-2.46875 0.48438,-1.17188 1.32813,-2.04688 0.85937,-0.875 1.98437,-1.375 1.14063,-0.51562 2.45313,-0.51562 1.15625,0 2.09375,0.34375 0.9375,0.32812 1.82812,1.0625 0.14063,0.10937 0.15625,0.26562 0.0312,0.15625 -0.0312,0.29688 -0.0625,0.125 -0.1875,0.1875 -0.0312,0.125 -0.17187,0.20312 -0.125,0.0625 -0.29688,0.0469 -0.15625,-0.0156 -0.32812,-0.15625 -0.625,-0.53125 -1.35938,-0.79688 -0.73437,-0.26562 -1.70312,-0.26562 -1.04688,0 -1.95313,0.42187 -0.89062,0.40625 -1.59375,1.125 -0.6875,0.71875 -1.07812,1.67188 -0.39063,0.9375 -0.39063,2 0,1.07812 0.39063,2.03125 0.39062,0.9375 1.07812,1.65625 0.70313,0.71875 1.59375,1.125 0.90625,0.40625 1.95313,0.40625 0.875,0 1.65625,-0.28125 0.78125,-0.28125 1.5,-0.82813 0.1875,-0.15625 0.39062,-0.125 0.21875,0.0312 0.375,0.1875 0.17188,0.15625 0.17188,0.42188 0,0.125 -0.0469,0.23437 -0.0312,0.0937 -0.125,0.20313 -0.82812,0.75 -1.84375,1.0625 -1,0.3125 -2.07812,0.3125 z m 7.28802,-0.15625 q -0.26562,0 -0.45312,-0.17188 -0.17188,-0.1875 -0.17188,-0.45312 v -11.25 q 0,-0.26563 0.17188,-0.4375 0.1875,-0.1875 0.45312,-0.1875 h 3.20313 q 1.1875,0 2.09375,0.53125 0.92187,0.51562 1.42187,1.4375 0.51563,0.90625 0.51563,2.09375 0,1.17187 -0.51563,2.07812 -0.5,0.90625 -1.42187,1.42188 -0.90625,0.51562 -2.09375,0.51562 h -2.57813 v 3.79688 q 0,0.26562 -0.17187,0.45312 -0.17188,0.17188 -0.45313,0.17188 z m 0.625,-5.60938 h 2.57813 q 0.8125,0 1.45312,-0.35937 0.64063,-0.375 1,-1 0.35938,-0.64063 0.35938,-1.46875 0,-0.84375 -0.35938,-1.48438 -0.35937,-0.64062 -1,-1 -0.64062,-0.375 -1.45312,-0.375 h -2.57813 z m 17.07376,5.76563 q -1.01562,0 -1.89062,-0.29688 -0.875,-0.29687 -1.51563,-0.82812 -0.64062,-0.54688 -0.96875,-1.26563 -0.14062,-0.26562 -0.0156,-0.46875 0.125,-0.21875 0.40625,-0.3125 0.23437,-0.0625 0.4375,0.0625 0.21875,0.10938 0.32812,0.32813 0.25,0.46875 0.70313,0.84375 0.46875,0.35937 1.10937,0.5625 0.64063,0.1875 1.40625,0.1875 0.84375,0 1.5,-0.26563 0.65625,-0.28125 1.03125,-0.8125 0.39063,-0.54687 0.39063,-1.3125 0,-0.98437 -0.73438,-1.6875 -0.71875,-0.70312 -2.25,-0.89062 -1.875,-0.21875 -2.9375,-1.15625 -1.04687,-0.9375 -1.04687,-2.29688 0,-0.98437 0.51562,-1.70312 0.53125,-0.71875 1.4375,-1.10938 0.90625,-0.39062 2.09375,-0.39062 0.875,0 1.59375,0.28125 0.73438,0.28125 1.26563,0.73437 0.53125,0.45313 0.875,1 0.15625,0.25 0.0937,0.5 -0.0469,0.23438 -0.28125,0.35938 -0.23438,0.125 -0.48438,0.0469 -0.25,-0.0937 -0.375,-0.3125 -0.23437,-0.375 -0.59375,-0.70312 -0.35937,-0.32813 -0.875,-0.51563 -0.51562,-0.1875 -1.23437,-0.20312 -1.26563,0 -2.03125,0.53125 -0.76563,0.53125 -0.76563,1.5625 0,0.54687 0.28125,1 0.29688,0.45312 0.95313,0.78125 0.67187,0.32812 1.78125,0.48437 2,0.29688 2.96875,1.23438 0.96875,0.9375 0.96875,2.4375 0,0.85937 -0.3125,1.53125 -0.3125,0.67187 -0.875,1.14062 -0.5625,0.45313 -1.32813,0.6875 -0.76562,0.23438 -1.625,0.23438 z m 10.56079,-0.0781 q -1.29687,0 -2.29687,-0.5625 -1,-0.57812 -1.57813,-1.57812 -0.5625,-1.01563 -0.5625,-2.3125 0,-1.3125 0.53125,-2.3125 0.54688,-1 1.48438,-1.5625 0.95312,-0.57813 2.1875,-0.57813 1.21875,0 2.10937,0.54688 0.90625,0.54687 1.40625,1.53125 0.5,0.96875 0.5,2.21875 0,0.26562 -0.17187,0.42187 -0.15625,0.14063 -0.40625,0.14063 h -6.79688 v -1.01563 h 6.92188 l -0.6875,0.48438 q 0.0156,-0.92188 -0.34375,-1.65625 -0.34375,-0.73438 -1,-1.15625 -0.64063,-0.42188 -1.53125,-0.42188 -0.92188,0 -1.60938,0.4375 -0.6875,0.4375 -1.0625,1.20313 -0.375,0.75 -0.375,1.71875 0,0.98437 0.42188,1.73437 0.42187,0.75 1.15625,1.1875 0.75,0.42188 1.70312,0.42188 0.57813,0 1.15625,-0.1875 0.59375,-0.20313 0.9375,-0.51563 0.1875,-0.14062 0.40625,-0.14062 0.21875,-0.0156 0.375,0.10937 0.21875,0.20313 0.21875,0.42188 0.0156,0.21875 -0.1875,0.39062 -0.51562,0.4375 -1.34375,0.73438 -0.8125,0.29687 -1.5625,0.29687 z m 8.91776,0 q -0.95313,0 -1.875,-0.3125 -0.92188,-0.32812 -1.5,-0.96875 -0.1875,-0.1875 -0.15625,-0.42187 0.0469,-0.25 0.25,-0.42188 0.21875,-0.15625 0.45312,-0.125 0.25,0.0312 0.40625,0.20313 0.39063,0.45312 1.01563,0.6875 0.64062,0.23437 1.40625,0.23437 1.1875,0 1.70312,-0.40625 0.53125,-0.40625 0.54688,-0.98437 0,-0.57813 -0.54688,-0.95313 -0.54687,-0.375 -1.78125,-0.57812 -1.625,-0.25 -2.375,-0.89063 -0.75,-0.64062 -0.75,-1.53125 0,-0.8125 0.42188,-1.34375 0.4375,-0.54687 1.15625,-0.8125 0.71875,-0.28125 1.59375,-0.28125 1.0625,0 1.84375,0.375 0.78125,0.35938 1.25,0.98438 0.17187,0.20312 0.125,0.4375 -0.0312,0.21875 -0.25,0.35937 -0.1875,0.10938 -0.4375,0.0781 -0.25,-0.0469 -0.42188,-0.23438 -0.40625,-0.46875 -0.9375,-0.6875 -0.51562,-0.21875 -1.20312,-0.21875 -0.89063,0 -1.42188,0.35938 -0.51562,0.35937 -0.51562,0.90625 0,0.375 0.1875,0.65625 0.20312,0.26562 0.6875,0.46875 0.5,0.20312 1.375,0.35937 1.20312,0.1875 1.89062,0.5625 0.70313,0.375 1,0.875 0.29688,0.5 0.29688,1.09375 0,0.75 -0.4375,1.32813 -0.4375,0.5625 -1.21875,0.89062 -0.78125,0.3125 -1.78125,0.3125 z m 8.62402,0 q -0.95312,0 -1.875,-0.3125 -0.92187,-0.32812 -1.5,-0.96875 -0.1875,-0.1875 -0.15625,-0.42187 0.0469,-0.25 0.25,-0.42188 0.21875,-0.15625 0.45313,-0.125 0.25,0.0312 0.40625,0.20313 0.39062,0.45312 1.01562,0.6875 0.64063,0.23437 1.40625,0.23437 1.1875,0 1.70313,-0.40625 0.53125,-0.40625 0.54687,-0.98437 0,-0.57813 -0.54687,-0.95313 -0.54688,-0.375 -1.78125,-0.57812 -1.625,-0.25 -2.375,-0.89063 -0.75,-0.64062 -0.75,-1.53125 0,-0.8125 0.42187,-1.34375 0.4375,-0.54687 1.15625,-0.8125 0.71875,-0.28125 1.59375,-0.28125 1.0625,0 1.84375,0.375 0.78125,0.35938 1.25,0.98438 0.17188,0.20312 0.125,0.4375 -0.0312,0.21875 -0.25,0.35937 -0.1875,0.10938 -0.4375,0.0781 -0.25,-0.0469 -0.42187,-0.23438 -0.40625,-0.46875 -0.9375,-0.6875 -0.51563,-0.21875 -1.20313,-0.21875 -0.89062,0 -1.42187,0.35938 -0.51563,0.35937 -0.51563,0.90625 0,0.375 0.1875,0.65625 0.20313,0.26562 0.6875,0.46875 0.5,0.20312 1.375,0.35937 1.20313,0.1875 1.89063,0.5625 0.70312,0.375 1,0.875 0.29687,0.5 0.29687,1.09375 0,0.75 -0.4375,1.32813 -0.4375,0.5625 -1.21875,0.89062 -0.78125,0.3125 -1.78125,0.3125 z m 6.43652,-0.0781 q -0.28125,0 -0.45312,-0.17188 -0.15625,-0.17187 -0.15625,-0.45312 v -7.5 q 0,-0.29688 0.15625,-0.45313 0.17187,-0.17187 0.45312,-0.17187 0.28125,0 0.4375,0.17187 0.17188,0.15625 0.17188,0.45313 v 7.5 q 0,0.28125 -0.17188,0.45312 -0.15625,0.17188 -0.4375,0.17188 z m 0,-10.42188 q -0.35937,0 -0.625,-0.25 -0.25,-0.25 -0.25,-0.625 0,-0.40625 0.26563,-0.625 0.26562,-0.23437 0.625,-0.23437 0.32812,0 0.59375,0.23437 0.26562,0.21875 0.26562,0.625 0,0.375 -0.26562,0.625 -0.25,0.25 -0.60938,0.25 z m 7.7334,10.5 q -1.28125,0 -2.29687,-0.57812 -1,-0.57813 -1.57813,-1.57813 -0.57812,-1.01562 -0.57812,-2.29687 0,-1.28125 0.57812,-2.29688 0.57813,-1.01562 1.57813,-1.57812 1.01562,-0.57813 2.29687,-0.57813 1.28125,0 2.28125,0.57813 1,0.5625 1.57813,1.57812 0.57812,1.01563 0.59375,2.29688 0,1.28125 -0.59375,2.29687 -0.57813,1 -1.57813,1.57813 -1,0.57812 -2.28125,0.57812 z m 0,-1.125 q 0.9375,0 1.67188,-0.42187 0.73437,-0.4375 1.14062,-1.1875 0.42188,-0.75 0.42188,-1.71875 0,-0.95313 -0.42188,-1.70313 -0.40625,-0.76562 -1.14062,-1.20312 -0.73438,-0.4375 -1.67188,-0.4375 -0.92187,0 -1.65625,0.4375 -0.73437,0.4375 -1.17187,1.20312 -0.42188,0.75 -0.42188,1.70313 0,0.96875 0.42188,1.71875 0.4375,0.75 1.17187,1.1875 0.73438,0.42187 1.65625,0.42187 z m 14.34766,1.04688 q -0.26563,0 -0.45313,-0.17188 -0.17187,-0.1875 -0.17187,-0.4375 v -4.15625 q 0,-1 -0.375,-1.64062 -0.375,-0.64063 -1.03125,-0.95313 -0.64063,-0.32812 -1.45313,-0.32812 -0.78125,0 -1.4219,0.3125 -0.625,0.29687 -1,0.82812 -0.35938,0.53125 -0.35938,1.20313 h -0.875 q 0.0312,-1.01563 0.53125,-1.79688 0.51563,-0.79687 1.35938,-1.25 0.85937,-0.45312 1.89065,-0.45312 1.14063,0 2.03125,0.46875 0.90625,0.46875 1.42188,1.39062 0.51562,0.90625 0.51562,2.21875 v 4.15625 q 0,0.25 -0.17187,0.4375 -0.17188,0.17188 -0.4375,0.17188 z m -6.87503,0 q -0.28125,0 -0.45313,-0.17188 -0.17187,-0.17187 -0.17187,-0.4375 v -7.51562 q 0,-0.29688 0.17187,-0.45313 0.17188,-0.17187 0.45313,-0.17187 0.28125,0 0.4375,0.17187 0.17187,0.15625 0.17187,0.45313 v 7.51562 q 0,0.26563 -0.17187,0.4375 -0.15625,0.17188 -0.4375,0.17188 z"
       fill-rule="nonzero"
       id="path22" />
    <path
       fill="#999999"
       d="m 346.60104,264.83728 h 137.38583 v 53.76376 H 346.60104 Z"
       fill-rule="evenodd"
       id="path23" />
    <path
       fill="#ffffff"
       d="m 360.72348,287.79916 q -0.23438,0 -0.40625,-0.17188 -0.15625,-0.17187 -0.15625,-0.40625 v -10.29687 q 0,-0.25 0.15625,-0.40625 0.17187,-0.17188 0.40625,-0.17188 0.35937,0 0.51562,0.29688 l 4.9375,9.82812 h -0.5 l 4.85938,-9.82812 q 0.17187,-0.29688 0.51562,-0.29688 0.23438,0 0.39063,0.17188 0.15625,0.15625 0.15625,0.40625 v 10.29687 q 0,0.23438 -0.15625,0.40625 -0.15625,0.17188 -0.39063,0.17188 -0.25,0 -0.42187,-0.17188 -0.17188,-0.17187 -0.17188,-0.40625 v -8.8125 l 0.25,0.0156 -4.32812,8.82812 q -0.15625,0.28125 -0.48438,0.28125 -0.375,0 -0.53125,-0.34375 l -4.35937,-8.71875 0.29687,-0.0625 v 8.8125 q 0,0.23438 -0.17187,0.40625 -0.17188,0.17188 -0.40625,0.17188 z m 18.95596,0.14062 q -1.1875,0 -2.21875,-0.45312 -1.03125,-0.45313 -1.82812,-1.26563 -0.78125,-0.8125 -1.21875,-1.875 -0.4375,-1.0625 -0.4375,-2.28125 0,-1.20312 0.42187,-2.26562 0.4375,-1.0625 1.21875,-1.85938 0.79688,-0.8125 1.82813,-1.26562 1.03125,-0.46875 2.23437,-0.46875 1.0625,0 1.92188,0.3125 0.85937,0.29687 1.67187,0.98437 0.125,0.0937 0.14063,0.23438 0.0312,0.14062 -0.0312,0.26562 -0.0469,0.125 -0.17188,0.1875 -0.0312,0.10938 -0.15625,0.17188 -0.10937,0.0625 -0.26562,0.0469 -0.14063,-0.0156 -0.29688,-0.14062 -0.5625,-0.5 -1.25,-0.73438 -0.67187,-0.25 -1.5625,-0.25 -0.95312,0 -1.78125,0.39063 -0.82812,0.375 -1.46875,1.04687 -0.625,0.65625 -0.98437,1.51563 -0.35938,0.85937 -0.35938,1.82812 0,1 0.35938,1.875 0.35937,0.85938 0.98437,1.51563 0.64063,0.65625 1.46875,1.03125 0.82813,0.375 1.78125,0.375 0.8125,0 1.53125,-0.26563 0.71875,-0.26562 1.35938,-0.76562 0.17187,-0.14063 0.35937,-0.10938 0.20313,0.0312 0.34375,0.17188 0.15625,0.14062 0.15625,0.375 0,0.125 -0.0469,0.21875 -0.0312,0.0937 -0.10938,0.20312 -0.75,0.6875 -1.67187,0.96875 -0.92188,0.28125 -1.92188,0.28125 z m 6.67792,-0.14062 q -0.25,0 -0.40625,-0.15625 -0.15625,-0.17188 -0.15625,-0.42188 v -10.29687 q 0,-0.25 0.15625,-0.40625 0.15625,-0.17188 0.40625,-0.17188 h 2.9375 q 1.07813,0 1.90625,0.48438 0.84375,0.46875 1.3125,1.3125 0.46875,0.82812 0.46875,1.9375 0,1.0625 -0.46875,1.89062 -0.46875,0.82813 -1.3125,1.3125 -0.82812,0.46875 -1.90625,0.46875 h -2.35937 v 3.46875 q 0,0.25 -0.17188,0.42188 -0.15625,0.15625 -0.40625,0.15625 z m 0.57813,-5.14063 h 2.35937 q 0.75,0 1.32813,-0.32812 0.59375,-0.32813 0.92187,-0.90625 0.32813,-0.59375 0.32813,-1.34375 0,-0.78125 -0.32813,-1.35938 -0.32812,-0.59375 -0.92187,-0.92187 -0.57813,-0.34375 -1.32813,-0.34375 h -2.35937 z m 15.45147,5.14063 q -0.23437,0 -0.40625,-0.17188 -0.17187,-0.17187 -0.17187,-0.40625 v -10.875 h 1.14062 v 10.875 q 0,0.23438 -0.15625,0.40625 -0.15625,0.17188 -0.40625,0.17188 z m -4.04687,-10.40625 q -0.23438,0 -0.39063,-0.14063 -0.14062,-0.15625 -0.14062,-0.375 0,-0.23437 0.14062,-0.375 0.15625,-0.15625 0.39063,-0.15625 h 8.10937 q 0.23438,0 0.375,0.15625 0.14063,0.14063 0.14063,0.375 0,0.21875 -0.14063,0.375 -0.14062,0.14063 -0.375,0.14063 z m 8.57779,5.46875 q 0.0469,-0.90625 0.48437,-1.625 0.4375,-0.71875 1.125,-1.125 0.70313,-0.42188 1.54688,-0.42188 0.67187,0 1.03125,0.20313 0.375,0.1875 0.29687,0.54687 -0.0625,0.21875 -0.20312,0.29688 -0.14063,0.0781 -0.34375,0.0625 -0.1875,-0.0156 -0.4375,-0.0312 -0.82813,-0.0781 -1.46875,0.17187 -0.625,0.23438 -1,0.73438 -0.375,0.5 -0.375,1.1875 z m 0.0937,4.9375 q -0.26563,0 -0.42188,-0.14063 -0.14062,-0.15625 -0.14062,-0.42187 v -6.89063 q 0,-0.26562 0.14062,-0.40625 0.15625,-0.15625 0.42188,-0.15625 0.26562,0 0.40625,0.15625 0.15625,0.14063 0.15625,0.40625 v 6.89063 q 0,0.26562 -0.15625,0.42187 -0.14063,0.14063 -0.40625,0.14063 z m 9.09466,0.0781 q -1.125,0 -2.01562,-0.53125 -0.89063,-0.54687 -1.42188,-1.46875 -0.51562,-0.92187 -0.51562,-2.07812 0,-1.17188 0.53125,-2.09375 0.54687,-0.92188 1.46875,-1.45313 0.92187,-0.54687 2.07812,-0.54687 1.15625,0 2.0625,0.54687 0.92188,0.53125 1.45313,1.45313 0.54687,0.92187 0.5625,2.09375 l -0.45313,0.34375 q 0,1.0625 -0.5,1.90625 -0.48437,0.84375 -1.32812,1.34375 -0.84375,0.48437 -1.92188,0.48437 z m 0.125,-1.03125 q 0.84375,0 1.51563,-0.39062 0.67187,-0.40625 1.04687,-1.09375 0.39063,-0.70313 0.39063,-1.5625 0,-0.875 -0.39063,-1.5625 -0.375,-0.70313 -1.04687,-1.09375 -0.67188,-0.40625 -1.51563,-0.40625 -0.82812,0 -1.51562,0.40625 -0.67188,0.39062 -1.0625,1.09375 -0.39063,0.6875 -0.39063,1.5625 0,0.85937 0.39063,1.5625 0.39062,0.6875 1.0625,1.09375 0.6875,0.39062 1.51562,0.39062 z m 3.5,0.95313 q -0.25,0 -0.40625,-0.15625 -0.15625,-0.15625 -0.15625,-0.40625 v -2.5 l 0.26563,-1.15625 0.875,0.21875 v 3.4375 q 0,0.25 -0.17188,0.40625 -0.15625,0.15625 -0.40625,0.15625 z m 9.64109,0 q -0.25,0 -0.40625,-0.15625 -0.15625,-0.17188 -0.15625,-0.40625 v -3.8125 q 0,-0.90625 -0.34375,-1.48438 -0.34375,-0.59375 -0.9375,-0.875 -0.59375,-0.29687 -1.34375,-0.29687 -0.71875,0 -1.29688,0.28125 -0.57812,0.26562 -0.92187,0.75 -0.32813,0.48437 -0.32813,1.10937 h -0.8125 q 0.0312,-0.92187 0.5,-1.64062 0.46875,-0.73438 1.23438,-1.15625 0.78125,-0.42188 1.73437,-0.42188 1.04688,0 1.85938,0.4375 0.82812,0.4375 1.29687,1.28125 0.48438,0.82813 0.48438,2.01563 v 3.8125 q 0,0.23437 -0.17188,0.40625 -0.15625,0.15625 -0.39062,0.15625 z m -6.29688,0 q -0.26562,0 -0.42187,-0.15625 -0.15625,-0.15625 -0.15625,-0.40625 v -6.89063 q 0,-0.25 0.15625,-0.40625 0.15625,-0.15625 0.42187,-0.15625 0.25,0 0.40625,0.15625 0.15625,0.15625 0.15625,0.40625 v 6.89063 q 0,0.25 -0.15625,0.40625 -0.15625,0.15625 -0.40625,0.15625 z m 12.15668,0.0781 q -0.875,0 -1.73438,-0.29687 -0.84375,-0.29688 -1.35937,-0.875 -0.17188,-0.1875 -0.14063,-0.40625 0.0312,-0.21875 0.21875,-0.375 0.20313,-0.14063 0.42188,-0.10938 0.23437,0.0156 0.375,0.1875 0.34375,0.40625 0.92187,0.625 0.59375,0.21875 1.29688,0.21875 1.07812,0 1.5625,-0.375 0.48437,-0.375 0.5,-0.90625 0,-0.51562 -0.5,-0.85937 -0.5,-0.34375 -1.64063,-0.54688 -1.48437,-0.23437 -2.17187,-0.8125 -0.6875,-0.59375 -0.6875,-1.39062 0,-0.75 0.39062,-1.25 0.40625,-0.5 1.0625,-0.75 0.65625,-0.25 1.45313,-0.25 0.98437,0 1.6875,0.34375 0.71875,0.32812 1.15625,0.90625 0.14062,0.1875 0.10937,0.39062 -0.0312,0.20313 -0.23437,0.34375 -0.17188,0.0937 -0.40625,0.0625 -0.21875,-0.0312 -0.375,-0.21875 -0.375,-0.42187 -0.85938,-0.60937 -0.48437,-0.20313 -1.10937,-0.20313 -0.8125,0 -1.29688,0.32813 -0.48437,0.32812 -0.48437,0.82812 0,0.34375 0.1875,0.59375 0.1875,0.25 0.625,0.4375 0.45312,0.1875 1.26562,0.3125 1.09375,0.1875 1.73438,0.53125 0.64062,0.34375 0.90625,0.8125 0.26562,0.45313 0.26562,0.98438 0,0.70312 -0.40625,1.21875 -0.39062,0.51562 -1.10937,0.8125 -0.70313,0.29687 -1.625,0.29687 z m 5.66537,3.34375 q -0.26562,0 -0.42187,-0.15625 -0.15625,-0.14062 -0.15625,-0.40625 v -6.92187 q 0.0156,-1.14063 0.54687,-2.04688 0.54688,-0.92187 1.45313,-1.45312 0.92187,-0.53125 2.0625,-0.53125 1.17187,0 2.09375,0.54687 0.92187,0.53125 1.45312,1.45313 0.54688,0.92187 0.54688,2.09375 0,1.15625 -0.53125,2.07812 -0.51563,0.92188 -1.40625,1.46875 -0.89063,0.53125 -2.01563,0.53125 -0.98437,0 -1.78125,-0.42187 -0.79687,-0.42188 -1.28125,-1.10938 v 4.3125 q 0,0.26563 -0.15625,0.40625 -0.15625,0.15625 -0.40625,0.15625 z m 3.48438,-4.375 q 0.85937,0 1.53125,-0.39062 0.67187,-0.40625 1.0625,-1.09375 0.39062,-0.70313 0.39062,-1.5625 0,-0.875 -0.39062,-1.5625 -0.39063,-0.70313 -1.0625,-1.09375 -0.67188,-0.40625 -1.53125,-0.40625 -0.82813,0 -1.51563,0.40625 -0.67187,0.39062 -1.04687,1.09375 -0.375,0.6875 -0.375,1.5625 0,0.85937 0.375,1.5625 0.375,0.6875 1.04687,1.09375 0.6875,0.39062 1.51563,0.39062 z m 9.95578,1.03125 q -1.17188,0 -2.09375,-0.53125 -0.92188,-0.53125 -1.45313,-1.45312 -0.53125,-0.92188 -0.53125,-2.09375 0,-1.1875 0.53125,-2.10938 0.53125,-0.92187 1.45313,-1.45312 0.92187,-0.53125 2.09375,-0.53125 1.17187,0 2.07812,0.53125 0.92188,0.53125 1.45313,1.45312 0.53125,0.92188 0.54687,2.10938 0,1.17187 -0.54687,2.09375 -0.53125,0.92187 -1.45313,1.45312 -0.90625,0.53125 -2.07812,0.53125 z m 0,-1.03125 q 0.84375,0 1.51562,-0.39062 0.6875,-0.40625 1.0625,-1.09375 0.375,-0.6875 0.375,-1.5625 0,-0.875 -0.375,-1.5625 -0.375,-0.70313 -1.0625,-1.09375 -0.67187,-0.40625 -1.51562,-0.40625 -0.84375,0 -1.53125,0.40625 -0.67188,0.39062 -1.0625,1.09375 -0.375,0.6875 -0.375,1.5625 0,0.875 0.375,1.5625 0.39062,0.6875 1.0625,1.09375 0.6875,0.39062 1.53125,0.39062 z m 6.7348,-3.98437 q 0.0469,-0.90625 0.48437,-1.625 0.4375,-0.71875 1.125,-1.125 0.70313,-0.42188 1.54688,-0.42188 0.67187,0 1.03125,0.20313 0.375,0.1875 0.29687,0.54687 -0.0625,0.21875 -0.20312,0.29688 -0.14063,0.0781 -0.34375,0.0625 -0.1875,-0.0156 -0.4375,-0.0312 -0.82813,-0.0781 -1.46875,0.17187 -0.625,0.23438 -1,0.73438 -0.375,0.5 -0.375,1.1875 z m 0.0937,4.9375 q -0.26563,0 -0.42188,-0.14063 -0.14062,-0.15625 -0.14062,-0.42187 v -6.89063 q 0,-0.26562 0.14062,-0.40625 0.15625,-0.15625 0.42188,-0.15625 0.26562,0 0.40625,0.15625 0.15625,0.14063 0.15625,0.40625 v 6.89063 q 0,0.26562 -0.15625,0.42187 -0.14063,0.14063 -0.40625,0.14063 z m 9.29071,0 q -0.78125,0 -1.39063,-0.35938 -0.59375,-0.375 -0.95312,-1.01562 -0.34375,-0.64063 -0.34375,-1.45313 v -7.17187 q 0,-0.25 0.14062,-0.40625 0.15625,-0.15625 0.40625,-0.15625 0.25,0 0.40625,0.15625 0.17188,0.15625 0.17188,0.40625 v 7.17187 q 0,0.75 0.4375,1.23438 0.4375,0.46875 1.125,0.46875 h 0.39062 q 0.23438,0 0.375,0.15625 0.15625,0.15625 0.15625,0.40625 0,0.25 -0.17187,0.40625 -0.17188,0.15625 -0.4375,0.15625 z m -3.64063,-6.73438 q -0.21875,0 -0.375,-0.14062 -0.14062,-0.14063 -0.14062,-0.34375 0,-0.23438 0.14062,-0.35938 0.15625,-0.14062 0.375,-0.14062 h 3.73438 q 0.21875,0 0.35937,0.14062 0.15625,0.125 0.15625,0.35938 0,0.20312 -0.15625,0.34375 -0.14062,0.14062 -0.35937,0.14062 z"
       fill-rule="nonzero"
       id="path24" />
    <path
       fill="#ffffff"
       d="m 392.35425,309.22104 q -0.17188,0 -0.3125,-0.0937 -0.125,-0.0781 -0.23438,-0.28125 -0.85937,-1.76562 -1.28125,-3.53125 -0.42187,-1.76562 -0.42187,-3.54687 0,-1.76563 0.42187,-3.53125 0.42188,-1.76563 1.28125,-3.51563 0.1875,-0.39062 0.54688,-0.39062 0.23437,0 0.39062,0.17187 0.17188,0.15625 0.17188,0.39063 0,0.17187 -0.0937,0.32812 -1.60938,3.26563 -1.60938,6.5625 0,1.64063 0.40625,3.29688 0.42188,1.65625 1.21875,3.28125 0.0937,0.17187 0.0937,0.3125 0,0.23437 -0.17187,0.39062 -0.15625,0.15625 -0.40625,0.15625 z m 7.33014,-3.28125 q -1.1875,0 -2.21875,-0.45312 -1.03125,-0.45313 -1.82813,-1.26563 -0.78125,-0.8125 -1.21875,-1.875 -0.4375,-1.0625 -0.4375,-2.28125 0,-1.20312 0.42188,-2.26562 0.4375,-1.0625 1.21875,-1.85938 0.79687,-0.8125 1.82812,-1.26562 1.03125,-0.46875 2.23438,-0.46875 1.0625,0 1.92187,0.3125 0.85938,0.29687 1.67188,0.98437 0.125,0.0937 0.14062,0.23438 0.0312,0.14062 -0.0312,0.26562 -0.0469,0.125 -0.17187,0.1875 -0.0312,0.10938 -0.15625,0.17188 -0.10938,0.0625 -0.26563,0.0469 -0.14062,-0.0156 -0.29687,-0.14062 -0.5625,-0.5 -1.25,-0.73438 -0.67188,-0.25 -1.5625,-0.25 -0.95313,0 -1.78125,0.39063 -0.82813,0.375 -1.46875,1.04687 -0.625,0.65625 -0.98438,1.51563 -0.35937,0.85937 -0.35937,1.82812 0,1 0.35937,1.875 0.35938,0.85938 0.98438,1.51563 0.64062,0.65625 1.46875,1.03125 0.82812,0.375 1.78125,0.375 0.8125,0 1.53125,-0.26563 0.71875,-0.26562 1.35937,-0.76562 0.17188,-0.14063 0.35938,-0.10938 0.20312,0.0312 0.34375,0.17188 0.15625,0.14062 0.15625,0.375 0,0.125 -0.0469,0.21875 -0.0312,0.0937 -0.10937,0.20312 -0.75,0.6875 -1.67188,0.96875 -0.92187,0.28125 -1.92187,0.28125 z m 7.69354,-0.14062 q -0.57812,0 -1.04687,-0.3125 -0.46875,-0.32813 -0.71875,-0.89063 -0.25,-0.57812 -0.25,-1.32812 v -8.35938 q 0,-0.25 0.14062,-0.40625 0.15625,-0.15625 0.40625,-0.15625 0.25,0 0.40625,0.15625 0.15625,0.15625 0.15625,0.40625 v 8.35938 q 0,0.625 0.25,1.03125 0.26563,0.39062 0.65625,0.39062 h 0.375 q 0.21875,0 0.34375,0.15625 0.14063,0.14063 0.14063,0.39063 0,0.25 -0.1875,0.40625 -0.1875,0.15625 -0.48438,0.15625 z m 3.21118,0 q -0.26562,0 -0.42187,-0.15625 -0.15625,-0.15625 -0.15625,-0.42188 v -6.875 q 0,-0.25 0.15625,-0.40625 0.15625,-0.15625 0.42187,-0.15625 0.25,0 0.40625,0.15625 0.15625,0.15625 0.15625,0.40625 v 6.875 q 0,0.26563 -0.15625,0.42188 -0.15625,0.15625 -0.40625,0.15625 z m -0.0156,-9.54688 q -0.32813,0 -0.5625,-0.23437 -0.23438,-0.23438 -0.23438,-0.5625 0,-0.375 0.23438,-0.57813 0.25,-0.21875 0.57812,-0.21875 0.29688,0 0.53125,0.21875 0.25,0.20313 0.25,0.57813 0,0.32812 -0.23437,0.5625 -0.23438,0.23437 -0.5625,0.23437 z m 7.07944,9.625 q -1.1875,0 -2.10938,-0.51562 -0.90625,-0.53125 -1.4375,-1.45313 -0.51562,-0.92187 -0.51562,-2.10937 0,-1.20313 0.48437,-2.10938 0.5,-0.92187 1.35938,-1.45312 0.875,-0.53125 2,-0.53125 1.10937,0 1.9375,0.51562 0.82812,0.5 1.28125,1.39063 0.45312,0.89062 0.45312,2.04687 0,0.23438 -0.14062,0.375 -0.14063,0.125 -0.375,0.125 h -6.23438 v -0.9375 h 6.34375 l -0.625,0.45313 q 0.0156,-0.84375 -0.3125,-1.51563 -0.32812,-0.67187 -0.92187,-1.04687 -0.57813,-0.39063 -1.40625,-0.39063 -0.82813,0 -1.46875,0.40625 -0.625,0.39063 -0.96875,1.09375 -0.34375,0.6875 -0.34375,1.57813 0,0.89062 0.375,1.57812 0.39062,0.6875 1.0625,1.09375 0.6875,0.39063 1.5625,0.39063 0.53125,0 1.0625,-0.17188 0.53125,-0.1875 0.85937,-0.46875 0.15625,-0.14062 0.35938,-0.14062 0.21875,-0.0156 0.35937,0.10937 0.1875,0.17188 0.1875,0.375 0.0156,0.20313 -0.15625,0.35938 -0.48437,0.40625 -1.23437,0.6875 -0.75,0.26562 -1.4375,0.26562 z m 12.23333,-0.0781 q -0.25,0 -0.40625,-0.15625 -0.15625,-0.17188 -0.15625,-0.40625 v -3.8125 q 0,-0.90625 -0.34375,-1.48438 -0.34375,-0.59375 -0.9375,-0.875 -0.59375,-0.29687 -1.34375,-0.29687 -0.71875,0 -1.29687,0.28125 -0.57813,0.26562 -0.92188,0.75 -0.32812,0.48437 -0.32812,1.10937 h -0.8125 q 0.0312,-0.92187 0.5,-1.64062 0.46875,-0.73438 1.23437,-1.15625 0.78125,-0.42188 1.73438,-0.42188 1.04687,0 1.85937,0.4375 0.82813,0.4375 1.29688,1.28125 0.48437,0.82813 0.48437,2.01563 v 3.8125 q 0,0.23437 -0.17187,0.40625 -0.15625,0.15625 -0.39063,0.15625 z m -6.29687,0 q -0.26563,0 -0.42188,-0.15625 -0.15625,-0.15625 -0.15625,-0.40625 v -6.89063 q 0,-0.25 0.15625,-0.40625 0.15625,-0.15625 0.42188,-0.15625 0.25,0 0.40625,0.15625 0.15625,0.15625 0.15625,0.40625 v 6.89063 q 0,0.25 -0.15625,0.40625 -0.15625,0.15625 -0.40625,0.15625 z m 12.48483,0 q -0.78125,0 -1.39062,-0.35938 -0.59375,-0.375 -0.95313,-1.01562 -0.34375,-0.64063 -0.34375,-1.45313 v -7.17187 q 0,-0.25 0.14063,-0.40625 0.15625,-0.15625 0.40625,-0.15625 0.25,0 0.40625,0.15625 0.17187,0.15625 0.17187,0.40625 v 7.17187 q 0,0.75 0.4375,1.23438 0.4375,0.46875 1.125,0.46875 h 0.39063 q 0.23437,0 0.375,0.15625 0.15625,0.15625 0.15625,0.40625 0,0.25 -0.17188,0.40625 -0.17187,0.15625 -0.4375,0.15625 z m -3.64062,-6.73438 q -0.21875,0 -0.375,-0.14062 -0.14063,-0.14063 -0.14063,-0.34375 0,-0.23438 0.14063,-0.35938 0.15625,-0.14062 0.375,-0.14062 h 3.73437 q 0.21875,0 0.35938,0.14062 0.15625,0.125 0.15625,0.35938 0,0.20312 -0.15625,0.34375 -0.14063,0.14062 -0.35938,0.14062 z m 5.79806,10.15625 q -0.23437,0 -0.40625,-0.15625 -0.15625,-0.15625 -0.15625,-0.39062 0,-0.14063 0.0781,-0.3125 0.8125,-1.625 1.21875,-3.28125 0.42187,-1.65625 0.42187,-3.29688 0,-3.29687 -1.625,-6.5625 -0.0781,-0.15625 -0.0937,-0.32812 0,-0.23438 0.17188,-0.39063 0.17187,-0.17187 0.39062,-0.17187 0.375,0 0.5625,0.39062 0.85938,1.75 1.28125,3.51563 0.42188,1.76562 0.42188,3.53125 0,1.78125 -0.4375,3.54687 -0.42188,1.76563 -1.26563,3.53125 -0.125,0.20313 -0.25,0.28125 -0.125,0.0937 -0.3125,0.0937 z"
       fill-rule="nonzero"
       id="path25" />
  </g>
</svg>
